<svg version="1.1" xmlns="http://www.w3.org/2000/svg" viewBox="0 0 10020 980.0001" width="10020" height="980.0001">
  <!-- svg-source:excalidraw -->
  
  <defs>
    <style>
      @font-face {
        font-family: "Virgil";
        src: url("https://excalidraw.com/Virgil.woff2");
      }
      @font-face {
        font-family: "Cascadia";
        src: url("https://excalidraw.com/Cascadia.woff2");
      }
    </style>
  </defs>
  <rect x="0" y="0" width="10020" height="980.0001" fill="#fff0"></rect><g stroke-linecap="round" transform="translate(10 10) rotate(0 5000 0.5)"><path d="M-0.52 -0.26 C3022.65 -30.2, 6044.59 -29.2, 9999.32 0.22 M0.38 -0.31 C3948.03 -0.44, 7895.41 0.2, 9999.95 0.08 M10000.08 -0.06 C10000.09 0.27, 10000.05 0.48, 10000.09 0.92 M9999.97 0.01 C9999.95 0.33, 9999.98 0.72, 10000 0.99 M10000.22 1.51 C7095.77 35.76, 4193.15 34.95, -0.25 0.75 M10000.01 1.13 C7827.97 2.74, 5656.23 3.35, -0.33 0.84 M-0.04 1.01 C0 0.63, -0.06 0.15, 0.05 -0.03 M-0.04 0.95 C-0.04 0.73, -0.03 0.59, -0.05 -0.02" stroke="transparent" stroke-width="1" fill="none"></path></g><g transform="translate(651 586.125) rotate(0 41.5 5)" stroke="none"><path fill="#000" d="M 0.42,-1.70 Q 0.42,-1.70 2.71,-1.07 4.99,-0.43 8.47,0.12 11.95,0.68 17.49,1.51 23.02,2.34 29.96,3.28 36.90,4.22 44.14,4.91 51.38,5.60 57.63,6.18 63.88,6.77 68.24,7.02 72.60,7.28 74.57,7.64 76.54,8.00 79.58,8.09 82.61,8.18 82.90,8.24 83.18,8.30 83.43,8.45 83.68,8.59 83.87,8.81 84.06,9.03 84.17,9.30 84.29,9.57 84.31,9.86 84.32,10.15 84.25,10.43 84.18,10.71 84.02,10.95 83.86,11.19 83.63,11.37 83.40,11.55 83.13,11.65 82.85,11.74 82.56,11.75 82.27,11.75 81.99,11.66 81.72,11.57 81.48,11.40 81.25,11.23 81.09,10.99 80.92,10.75 80.84,10.47 80.76,10.19 80.77,9.90 80.78,9.61 80.89,9.34 80.99,9.07 81.17,8.85 81.36,8.62 81.61,8.47 81.85,8.32 82.14,8.25 82.42,8.19 82.71,8.21 83.00,8.24 83.26,8.36 83.53,8.48 83.74,8.68 83.95,8.87 84.09,9.13 84.23,9.38 84.28,9.67 84.33,9.95 84.29,10.24 84.25,10.53 84.11,10.79 83.98,11.04 83.77,11.25 83.56,11.45 83.30,11.57 83.04,11.70 82.75,11.73 82.46,11.77 82.46,11.77 82.46,11.77 80.30,11.59 78.14,11.41 77.04,11.12 75.94,10.83 74.19,10.41 72.44,9.99 68.03,9.76 63.63,9.52 57.37,8.96 51.12,8.39 43.82,7.73 36.53,7.07 29.56,6.17 22.59,5.28 17.04,4.51 11.50,3.74 7.85,3.24 4.20,2.73 1.88,2.22 -0.42,1.70 -0.62,1.62 -0.82,1.55 -0.99,1.43 -1.16,1.31 -1.30,1.15 -1.44,0.99 -1.54,0.80 -1.64,0.61 -1.69,0.41 -1.74,0.20 -1.74,-0.00 -1.74,-0.21 -1.69,-0.42 -1.63,-0.62 -1.54,-0.81 -1.44,-1.00 -1.30,-1.16 -1.16,-1.31 -0.98,-1.43 -0.81,-1.55 -0.61,-1.63 -0.41,-1.70 -0.20,-1.73 0.00,-1.75 0.21,-1.72 0.42,-1.70 0.42,-1.70 L 0.42,-1.70 Z"></path></g><g transform="translate(676 606.125) rotate(0 29.5 0.5)" stroke="none"><path fill="#000" d="M 0,-1.75 Q 0,-1.75 2.87,-1.69 5.74,-1.63 8.02,-1.87 10.30,-2.10 15.41,-2.20 20.52,-2.30 26.41,-2.33 32.30,-2.35 37.71,-2.07 43.12,-1.79 47.21,-1.08 51.30,-0.37 54.54,-0.08 57.77,0.20 58.02,0.27 58.27,0.35 58.49,0.50 58.70,0.65 58.86,0.87 59.01,1.08 59.09,1.33 59.17,1.58 59.17,1.84 59.16,2.11 59.07,2.35 58.98,2.60 58.82,2.81 58.66,3.01 58.44,3.16 58.22,3.30 57.96,3.37 57.71,3.43 57.45,3.41 57.18,3.39 56.94,3.29 56.70,3.19 56.50,3.01 56.30,2.84 56.17,2.61 56.04,2.38 55.99,2.13 55.94,1.87 55.97,1.61 56.01,1.35 56.12,1.11 56.24,0.87 56.42,0.69 56.60,0.50 56.84,0.38 57.07,0.26 57.33,0.22 57.60,0.19 57.85,0.23 58.11,0.28 58.34,0.41 58.57,0.54 58.75,0.73 58.93,0.93 59.03,1.17 59.14,1.41 59.16,1.67 59.18,1.93 59.12,2.19 59.06,2.44 58.92,2.67 58.78,2.89 58.58,3.05 58.37,3.22 58.13,3.31 57.88,3.41 57.62,3.41 57.36,3.42 57.36,3.42 57.36,3.42 54.10,2.88 50.84,2.34 46.91,1.67 42.98,1.00 37.65,0.76 32.32,0.51 26.46,0.58 20.59,0.66 15.63,0.81 10.67,0.95 8.21,1.29 5.75,1.63 2.87,1.69 0,1.75 -0.20,1.72 -0.41,1.70 -0.61,1.62 -0.81,1.55 -0.98,1.43 -1.16,1.31 -1.30,1.15 -1.44,0.99 -1.53,0.80 -1.63,0.62 -1.68,0.41 -1.73,0.21 -1.73,-0.00 -1.73,-0.21 -1.68,-0.41 -1.63,-0.62 -1.53,-0.80 -1.44,-0.99 -1.30,-1.15 -1.16,-1.31 -0.98,-1.43 -0.81,-1.55 -0.61,-1.62 -0.41,-1.70 -0.20,-1.72 0.00,-1.75 0.00,-1.75 L 0,-1.75 Z"></path></g><g transform="translate(720 582.125) rotate(0 18.5 26.5)" stroke="none"><path fill="#000" d="M 0,-1.85 Q 0,-1.85 1.43,-1.90 2.87,-1.96 5.05,-1.60 7.22,-1.23 10.52,-0.14 13.81,0.93 18.01,2.26 22.21,3.58 25.46,4.75 28.71,5.91 30.59,6.37 32.48,6.82 33.84,7.33 35.21,7.83 36.36,9.56 37.52,11.28 37.29,14.31 37.06,17.35 35.69,20.67 34.33,23.99 32.87,26.80 31.42,29.60 30.20,31.66 28.99,33.71 28.26,34.98 27.53,36.24 25.91,37.72 24.29,39.20 21.56,41.22 18.84,43.25 15.36,45.54 11.88,47.84 9.55,49.37 7.22,50.90 5.50,52.31 3.78,53.72 3.54,53.84 3.30,53.97 3.04,54.01 2.78,54.05 2.51,54.00 2.25,53.96 2.02,53.83 1.78,53.70 1.60,53.51 1.42,53.31 1.31,53.07 1.20,52.82 1.18,52.56 1.15,52.29 1.21,52.03 1.27,51.77 1.41,51.55 1.55,51.32 1.76,51.15 1.96,50.98 2.21,50.88 2.46,50.79 2.72,50.78 2.99,50.77 3.25,50.84 3.50,50.91 3.72,51.07 3.94,51.22 4.10,51.43 4.26,51.65 4.34,51.90 4.42,52.15 4.42,52.42 4.42,52.68 4.33,52.94 4.24,53.19 4.08,53.40 3.91,53.61 3.69,53.76 3.47,53.90 3.21,53.97 2.95,54.04 2.69,54.02 2.42,54.01 2.18,53.90 1.93,53.80 1.73,53.63 1.53,53.45 1.39,53.22 1.26,52.99 1.20,52.73 1.15,52.47 1.18,52.21 1.21,51.94 1.33,51.70 1.44,51.46 1.63,51.27 1.81,51.08 1.81,51.08 1.81,51.08 3.72,49.80 5.62,48.51 7.93,46.94 10.23,45.38 13.60,43.08 16.97,40.79 19.53,38.79 22.09,36.79 23.44,35.57 24.78,34.34 25.62,33.30 26.45,32.26 27.58,30.24 28.70,28.23 30.04,25.51 31.37,22.79 32.52,19.89 33.68,16.98 33.95,14.84 34.22,12.70 32.98,11.23 31.75,9.76 29.74,9.27 27.72,8.77 24.51,7.69 21.29,6.62 17.05,5.38 12.81,4.15 9.76,3.26 6.71,2.38 4.79,2.17 2.87,1.96 1.43,1.90 0,1.85 -0.22,1.82 -0.44,1.79 -0.65,1.71 -0.86,1.63 -1.04,1.51 -1.22,1.38 -1.37,1.21 -1.52,1.05 -1.62,0.85 -1.73,0.65 -1.78,0.43 -1.83,0.22 -1.83,-0.00 -1.83,-0.22 -1.78,-0.43 -1.73,-0.65 -1.62,-0.85 -1.52,-1.05 -1.37,-1.21 -1.22,-1.38 -1.04,-1.51 -0.85,-1.63 -0.65,-1.71 -0.44,-1.79 -0.22,-1.82 0.00,-1.85 0.00,-1.85 L 0,-1.85 Z"></path></g><g transform="translate(822 538.125) rotate(0 38 24.5)" stroke="none"><path fill="#000" d="M 1.00,1.20 Q 1.00,1.20 -0.74,2.60 -2.48,4.01 -4.85,7.08 -7.21,10.14 -9.35,14.53 -11.48,18.92 -12.66,24.14 -13.84,29.36 -14.36,34.71 -14.87,40.07 -14.24,44.52 -13.61,48.98 -12.51,52.26 -11.40,55.54 -10.10,58.04 -8.81,60.54 -7.17,62.38 -5.54,64.21 -3.43,66.15 -1.31,68.08 0.67,69.44 2.65,70.80 4.78,71.31 6.90,71.83 9.77,72.07 12.65,72.31 17.15,71.00 21.65,69.70 27.53,66.32 33.42,62.94 40.20,57.23 46.98,51.52 53.90,44.79 60.81,38.06 66.58,30.93 72.36,23.79 76.83,17.61 81.29,11.42 84.01,6.27 86.74,1.12 88.15,-3.57 89.57,-8.27 90.18,-11.67 90.78,-15.07 90.75,-17.28 90.72,-19.49 90.16,-20.74 89.60,-21.99 86.27,-22.49 82.93,-22.99 78.94,-23.14 74.94,-23.30 68.99,-22.81 63.04,-22.31 55.87,-21.82 48.69,-21.33 39.35,-20.27 30.01,-19.21 23.14,-18.47 16.28,-17.74 11.66,-17.14 7.03,-16.55 5.16,-16.01 3.28,-15.47 2.34,-14.90 1.39,-14.33 -0.00,-12.61 -1.41,-10.88 -3.27,-8.65 -5.13,-6.41 -6.78,-4.32 -8.44,-2.24 -10.25,-0.38 -12.07,1.46 -12.29,1.61 -12.51,1.76 -12.77,1.83 -13.03,1.90 -13.30,1.88 -13.56,1.86 -13.81,1.76 -14.06,1.66 -14.26,1.48 -14.46,1.31 -14.60,1.08 -14.74,0.85 -14.79,0.59 -14.85,0.32 -14.81,0.06 -14.78,-0.20 -14.67,-0.44 -14.55,-0.68 -14.37,-0.87 -14.18,-1.07 -13.95,-1.19 -13.71,-1.31 -13.44,-1.35 -13.18,-1.39 -12.92,-1.35 -12.65,-1.30 -12.42,-1.17 -12.18,-1.05 -12.00,-0.85 -11.82,-0.65 -11.71,-0.41 -11.60,-0.17 -11.57,0.09 -11.54,0.36 -11.60,0.62 -11.66,0.88 -11.80,1.10 -11.94,1.33 -12.15,1.50 -12.36,1.67 -12.60,1.77 -12.85,1.87 -13.12,1.88 -13.39,1.89 -13.65,1.82 -13.90,1.74 -14.12,1.59 -14.34,1.44 -14.50,1.23 -14.66,1.01 -14.75,0.76 -14.83,0.50 -14.83,0.24 -14.82,-0.02 -14.74,-0.28 -14.65,-0.53 -14.48,-0.74 -14.32,-0.95 -14.32,-0.95 -14.32,-0.95 -12.51,-2.47 -10.69,-4.00 -9.05,-6.14 -7.42,-8.27 -5.59,-10.57 -3.77,-12.86 -1.92,-15.03 -0.06,-17.19 1.23,-17.66 2.54,-18.13 4.61,-18.68 6.68,-19.23 11.33,-19.85 15.98,-20.46 22.84,-21.22 29.69,-21.97 39.09,-23.07 48.49,-24.17 55.64,-24.70 62.79,-25.23 68.91,-25.78 75.03,-26.34 79.14,-26.25 83.26,-26.16 86.35,-25.83 89.45,-25.49 90.78,-24.42 92.12,-23.36 92.73,-21.46 93.34,-19.57 93.35,-17.10 93.37,-14.62 92.73,-11.06 92.09,-7.50 90.57,-2.58 89.06,2.34 86.24,7.65 83.42,12.95 78.91,19.20 74.40,25.45 68.52,32.69 62.64,39.94 55.66,46.74 48.68,53.54 41.70,59.38 34.73,65.22 28.55,68.72 22.38,72.22 17.43,73.57 12.48,74.93 9.36,74.65 6.24,74.38 3.73,73.69 1.21,73.00 -0.94,71.52 -3.09,70.04 -5.32,68.00 -7.54,65.97 -9.35,63.87 -11.16,61.78 -12.55,59.09 -13.94,56.40 -15.11,52.88 -16.28,49.36 -16.93,44.59 -17.59,39.82 -17.06,34.29 -16.54,28.75 -15.28,23.23 -14.02,17.70 -11.77,13.05 -9.51,8.39 -6.96,5.06 -4.41,1.73 -2.70,0.26 -1.00,-1.20 -0.84,-1.30 -0.68,-1.40 -0.50,-1.46 -0.32,-1.52 -0.14,-1.54 0.04,-1.56 0.23,-1.53 0.41,-1.50 0.59,-1.43 0.76,-1.36 0.91,-1.24 1.07,-1.13 1.19,-0.99 1.31,-0.84 1.39,-0.67 1.47,-0.50 1.51,-0.32 1.55,-0.14 1.55,0.04 1.54,0.23 1.49,0.41 1.44,0.59 1.35,0.76 1.25,0.92 1.12,1.06 0.99,1.20 1.00,1.20 L 1.00,1.20 Z"></path></g><g transform="translate(831 536.125) rotate(0 2 0)" stroke="none"><path fill="#000" d="M 0,-2.33 Q 0,-2.33 0.48,0.05 0.97,2.44 0.58,2.38 0.19,2.32 -0.15,2.13 -0.50,1.94 -0.77,1.66 -1.04,1.37 -1.21,1.01 -1.38,0.65 -1.42,0.26 -1.46,-0.13 -1.38,-0.51 -1.29,-0.90 -1.09,-1.24 -0.88,-1.58 -0.58,-1.84 -0.28,-2.09 0.08,-2.24 0.45,-2.39 0.84,-2.41 1.24,-2.43 1.62,-2.32 2.00,-2.22 2.33,-2.00 2.66,-1.77 2.90,-1.46 3.14,-1.14 3.26,-0.77 3.39,-0.39 3.39,0.00 3.39,0.39 3.26,0.77 3.14,1.14 2.90,1.46 2.66,1.77 2.33,2.00 2.00,2.22 1.62,2.32 1.24,2.43 0.84,2.41 0.45,2.39 0.08,2.24 -0.28,2.09 -0.58,1.84 -0.88,1.58 -1.09,1.24 -1.29,0.90 -1.38,0.51 -1.46,0.13 -1.42,-0.26 -1.38,-0.65 -1.21,-1.01 -1.04,-1.37 -0.77,-1.66 -0.50,-1.95 -0.15,-2.13 0.19,-2.32 0.58,-2.38 0.97,-2.44 0.97,-2.44 0.97,-2.44 0.48,-0.05 0,2.33 -0.27,2.30 -0.55,2.26 -0.82,2.16 -1.08,2.06 -1.31,1.90 -1.54,1.74 -1.73,1.53 -1.92,1.32 -2.05,1.07 -2.18,0.82 -2.25,0.55 -2.31,0.28 -2.31,-0.00 -2.31,-0.28 -2.25,-0.55 -2.18,-0.82 -2.05,-1.07 -1.92,-1.32 -1.73,-1.53 -1.54,-1.74 -1.31,-1.90 -1.08,-2.06 -0.82,-2.16 -0.55,-2.26 -0.27,-2.30 0.00,-2.33 0.00,-2.33 L 0,-2.33 Z"></path></g><g transform="translate(860 533.125) rotate(0 0.5 0)" stroke="none"><path fill="#000" d="M 2.12,-0.66 Q 2.12,-0.66 2.15,-0.13 2.18,0.40 1.96,0.88 1.74,1.36 1.32,1.69 0.91,2.02 0.38,2.12 -0.13,2.21 -0.64,2.05 -1.14,1.90 -1.52,1.52 -1.90,1.14 -2.05,0.64 -2.21,0.13 -2.12,-0.38 -2.02,-0.91 -1.69,-1.32 -1.36,-1.74 -0.88,-1.96 -0.39,-2.18 0.13,-2.15 0.66,-2.11 1.11,-1.84 1.57,-1.56 1.84,-1.11 L 2.12,-0.66 Z"></path></g><g transform="translate(832 564.125) rotate(0 24.5 -0.5)" stroke="none"><path fill="#000" d="M 1.48,-0.74 Q 1.48,-0.74 2.13,0.35 2.78,1.44 3.74,2.23 4.70,3.02 6.67,4.27 8.65,5.52 11.37,6.34 14.10,7.16 17.56,7.83 21.02,8.51 24.18,8.80 27.34,9.10 30.03,8.96 32.73,8.81 34.87,7.94 37.00,7.07 39.06,5.87 41.11,4.68 42.73,2.84 44.35,1.01 45.30,-0.83 46.26,-2.67 46.58,-4.26 46.90,-5.84 46.94,-7.49 46.98,-9.14 46.96,-9.74 46.93,-10.33 46.72,-10.57 46.51,-10.81 46.39,-11.10 46.27,-11.39 46.24,-11.71 46.22,-12.02 46.30,-12.33 46.38,-12.64 46.55,-12.90 46.72,-13.17 46.97,-13.37 47.22,-13.56 47.52,-13.67 47.82,-13.78 48.13,-13.79 48.45,-13.79 48.75,-13.70 49.05,-13.60 49.31,-13.41 49.57,-13.23 49.75,-12.97 49.93,-12.71 50.03,-12.41 50.12,-12.10 50.11,-11.79 50.09,-11.47 49.98,-11.17 49.87,-10.87 49.67,-10.63 49.47,-10.38 49.20,-10.21 48.93,-10.04 48.63,-9.97 48.32,-9.90 48.00,-9.92 47.69,-9.95 47.40,-10.08 47.10,-10.21 46.87,-10.42 46.64,-10.63 46.48,-10.91 46.33,-11.19 46.27,-11.50 46.21,-11.81 46.26,-12.13 46.30,-12.44 46.44,-12.72 46.59,-13.01 46.81,-13.23 47.04,-13.45 47.32,-13.59 47.61,-13.73 47.92,-13.77 48.24,-13.81 48.55,-13.75 48.86,-13.69 49.14,-13.53 49.41,-13.37 49.41,-13.37 49.41,-13.37 49.91,-10.28 50.41,-7.18 50.09,-6.14 49.78,-5.10 49.22,-3.27 48.65,-1.44 47.52,0.68 46.39,2.81 44.46,4.93 42.54,7.04 40.29,8.36 38.05,9.68 35.50,10.68 32.95,11.68 30.02,11.88 27.09,12.07 23.78,11.82 20.47,11.57 16.83,10.95 13.19,10.33 10.02,9.45 6.85,8.58 4.44,7.20 2.02,5.83 0.77,4.49 -0.48,3.15 -0.98,1.94 -1.48,0.74 -1.55,0.55 -1.62,0.36 -1.64,0.16 -1.66,-0.03 -1.63,-0.23 -1.60,-0.43 -1.53,-0.61 -1.45,-0.80 -1.34,-0.96 -1.22,-1.12 -1.07,-1.25 -0.91,-1.38 -0.73,-1.47 -0.55,-1.56 -0.36,-1.61 -0.16,-1.65 0.03,-1.65 0.23,-1.64 0.42,-1.59 0.62,-1.54 0.79,-1.44 0.97,-1.35 1.11,-1.21 1.26,-1.07 1.37,-0.91 1.48,-0.74 1.48,-0.74 L 1.48,-0.74 Z"></path></g><g transform="translate(928 596.125) rotate(0 0.00004999999998744897 0.00005000000000165983)" stroke="none"><path fill="#000" d="M 1.57,-1.57 Q 1.57,-1.57 1.77,-1.27 1.98,-0.98 2.09,-0.64 2.20,-0.29 2.19,0.05 2.18,0.41 2.05,0.75 1.93,1.09 1.70,1.37 1.48,1.65 1.18,1.84 0.87,2.04 0.52,2.12 0.18,2.21 -0.17,2.18 -0.53,2.15 -0.86,2.01 -1.19,1.87 -1.46,1.63 -1.73,1.39 -1.90,1.07 -2.08,0.76 -2.15,0.41 -2.21,0.05 -2.17,-0.29 -2.12,-0.65 -1.96,-0.97 -1.80,-1.29 -1.54,-1.54 -1.29,-1.80 -0.97,-1.96 -0.65,-2.12 -0.29,-2.17 0.06,-2.21 0.41,-2.15 0.76,-2.08 1.07,-1.90 1.39,-1.73 1.63,-1.46 1.87,-1.19 2.01,-0.86 2.15,-0.53 2.18,-0.17 2.21,0.18 2.12,0.52 2.03,0.87 1.84,1.18 1.65,1.48 1.37,1.70 1.09,1.93 0.75,2.05 0.41,2.18 0.05,2.19 -0.30,2.20 -0.64,2.09 -0.98,1.98 -1.27,1.77 -1.57,1.56 -1.57,1.57 -1.57,1.57 -1.73,1.35 -1.90,1.14 -2.01,0.90 -2.12,0.66 -2.16,0.39 -2.21,0.13 -2.20,-0.13 -2.18,-0.40 -2.10,-0.65 -2.02,-0.91 -1.88,-1.14 -1.74,-1.36 -1.55,-1.55 -1.36,-1.74 -1.14,-1.88 -0.91,-2.02 -0.65,-2.10 -0.40,-2.18 -0.13,-2.20 0.13,-2.21 0.39,-2.16 0.66,-2.12 0.90,-2.01 1.14,-1.90 1.35,-1.73 1.57,-1.57 1.57,-1.57 L 1.57,-1.57 Z"></path></g><g transform="translate(967 575.125) rotate(0 39 25)" stroke="none"><path fill="#000" d="M 1.19,-1.02 Q 1.19,-1.02 2.89,1.00 4.59,3.04 5.89,4.44 7.20,5.84 9.23,8.85 11.27,11.86 13.83,15.70 16.38,19.54 19.46,23.74 22.53,27.94 25.55,31.72 28.57,35.51 31.51,38.21 34.45,40.90 37.37,42.88 40.30,44.86 42.90,45.96 45.49,47.06 48.50,47.51 51.50,47.95 54.40,47.59 57.30,47.22 60.85,46.50 64.40,45.78 67.32,44.91 70.23,44.04 72.02,43.35 73.80,42.66 75.19,41.81 76.58,40.96 76.82,40.88 77.06,40.79 77.32,40.79 77.58,40.79 77.82,40.87 78.06,40.96 78.26,41.11 78.47,41.26 78.61,41.48 78.76,41.69 78.82,41.93 78.89,42.18 78.88,42.43 78.87,42.69 78.77,42.93 78.68,43.16 78.51,43.36 78.35,43.55 78.13,43.69 77.91,43.82 77.66,43.87 77.41,43.93 77.16,43.90 76.90,43.88 76.67,43.77 76.44,43.66 76.25,43.49 76.07,43.31 75.95,43.09 75.83,42.86 75.79,42.61 75.74,42.36 75.78,42.10 75.83,41.85 75.94,41.63 76.06,41.40 76.25,41.22 76.43,41.05 76.67,40.94 76.90,40.83 77.15,40.80 77.41,40.78 77.66,40.83 77.91,40.88 78.12,41.02 78.34,41.15 78.51,41.34 78.68,41.54 78.77,41.77 78.87,42.01 78.88,42.27 78.89,42.52 78.83,42.77 78.76,43.01 78.62,43.22 78.47,43.44 78.27,43.59 78.07,43.75 78.07,43.75 78.07,43.75 76.41,44.52 74.76,45.29 72.87,45.93 70.98,46.57 67.96,47.47 64.93,48.37 61.27,49.11 57.61,49.85 54.37,50.22 51.12,50.59 47.80,50.05 44.47,49.52 41.63,48.31 38.80,47.10 35.71,45.00 32.62,42.91 29.52,40.07 26.42,37.24 23.35,33.42 20.28,29.60 17.14,25.37 14.00,21.14 11.42,17.34 8.83,13.53 6.88,10.73 4.92,7.92 3.61,6.46 2.30,5.00 0.55,3.01 -1.19,1.02 -1.30,0.86 -1.41,0.71 -1.47,0.53 -1.54,0.35 -1.56,0.16 -1.57,-0.02 -1.55,-0.21 -1.52,-0.40 -1.45,-0.58 -1.38,-0.75 -1.27,-0.91 -1.16,-1.06 -1.02,-1.19 -0.87,-1.31 -0.70,-1.40 -0.53,-1.48 -0.35,-1.52 -0.16,-1.57 0.02,-1.56 0.21,-1.56 0.40,-1.51 0.58,-1.46 0.75,-1.37 0.91,-1.28 1.05,-1.15 1.19,-1.02 1.19,-1.02 L 1.19,-1.02 Z"></path></g><g transform="translate(1007 556.125) rotate(0 -28 43.5)" stroke="none"><path fill="#000" d="M 1.60,0.67 Q 1.60,0.67 -0.74,6.11 -3.10,11.55 -7.31,19.11 -11.53,26.66 -16.78,35.32 -22.03,43.97 -28.61,52.87 -35.19,61.76 -40.58,68.69 -45.96,75.62 -48.53,79.11 -51.09,82.61 -52.11,83.86 -53.13,85.12 -53.26,85.26 -53.39,85.40 -53.54,85.50 -53.70,85.60 -53.88,85.66 -54.05,85.72 -54.24,85.74 -54.42,85.76 -54.61,85.73 -54.79,85.70 -54.97,85.63 -55.14,85.56 -55.29,85.45 -55.44,85.34 -55.56,85.20 -55.68,85.06 -55.76,84.89 -55.85,84.72 -55.89,84.54 -55.93,84.36 -55.92,84.17 -55.92,83.98 -55.87,83.80 -55.82,83.62 -55.73,83.46 -55.63,83.30 -52.73,80.68 -49.82,78.06 -46.37,75.42 -42.92,72.78 -41.50,71.62 -40.07,70.45 -39.86,70.34 -39.64,70.22 -39.40,70.18 -39.16,70.14 -38.91,70.18 -38.67,70.21 -38.45,70.33 -38.23,70.44 -38.06,70.62 -37.89,70.79 -37.79,71.02 -37.68,71.24 -37.66,71.48 -37.63,71.73 -37.68,71.97 -37.73,72.21 -37.85,72.42 -37.98,72.63 -38.16,72.79 -38.35,72.95 -38.58,73.04 -38.81,73.14 -39.05,73.15 -39.30,73.17 -39.53,73.10 -39.77,73.04 -39.97,72.90 -40.18,72.77 -40.33,72.57 -40.48,72.38 -40.56,72.15 -40.64,71.91 -40.64,71.67 -40.64,71.42 -40.57,71.19 -40.49,70.96 -40.34,70.76 -40.20,70.56 -39.99,70.42 -39.79,70.28 -39.56,70.22 -39.32,70.15 -39.07,70.16 -38.83,70.17 -38.60,70.26 -38.37,70.35 -38.18,70.51 -37.99,70.66 -37.87,70.87 -37.74,71.08 -37.68,71.32 -37.63,71.56 -37.65,71.81 -37.68,72.05 -37.78,72.27 -37.88,72.50 -38.05,72.68 -38.22,72.86 -38.22,72.86 -38.21,72.86 -39.70,73.94 -41.18,75.03 -44.57,77.68 -47.96,80.32 -50.55,82.72 -53.13,85.12 -53.26,85.26 -53.39,85.40 -53.54,85.50 -53.70,85.60 -53.88,85.66 -54.05,85.72 -54.24,85.74 -54.42,85.76 -54.61,85.73 -54.79,85.70 -54.97,85.63 -55.14,85.56 -55.29,85.45 -55.44,85.34 -55.56,85.20 -55.68,85.06 -55.76,84.89 -55.85,84.72 -55.89,84.54 -55.93,84.36 -55.92,84.17 -55.92,83.98 -55.87,83.80 -55.82,83.62 -55.73,83.46 -55.63,83.30 -54.47,82.14 -53.31,80.98 -50.75,77.44 -48.18,73.90 -42.84,66.98 -37.50,60.06 -31.03,51.25 -24.56,42.45 -19.39,33.81 -14.22,25.17 -10.16,17.73 -6.09,10.29 -3.85,4.80 -1.60,-0.67 -1.50,-0.85 -1.39,-1.04 -1.25,-1.19 -1.10,-1.34 -0.93,-1.45 -0.75,-1.57 -0.55,-1.63 -0.35,-1.70 -0.14,-1.72 0.06,-1.74 0.27,-1.70 0.47,-1.67 0.67,-1.59 0.86,-1.51 1.03,-1.38 1.20,-1.26 1.33,-1.10 1.46,-0.93 1.56,-0.74 1.65,-0.55 1.69,-0.35 1.73,-0.14 1.72,0.06 1.72,0.27 1.66,0.47 1.60,0.67 1.60,0.67 L 1.60,0.67 Z"></path></g><g transform="translate(1084 601.125) rotate(0 -22 -17)" stroke="none"><path fill="#000" d="M -0.37,1.59 Q -0.37,1.59 -5.25,0.40 -10.13,-0.79 -15.06,-1.88 -19.99,-2.97 -24.40,-4.02 -28.81,-5.08 -31.83,-5.82 -34.86,-6.56 -37.11,-7.49 -39.36,-8.42 -40.81,-9.44 -42.27,-10.45 -43.25,-12.89 -44.23,-15.33 -44.58,-18.13 -44.93,-20.93 -44.48,-24.53 -44.03,-28.12 -42.65,-32.30 -41.27,-36.47 -38.60,-40.37 -35.93,-44.26 -33.35,-47.33 -30.78,-50.40 -29.07,-52.02 -27.36,-53.64 -26.33,-54.50 -25.30,-55.35 -23.43,-55.81 -21.56,-56.27 -19.41,-55.81 -17.26,-55.35 -15.34,-54.85 -13.42,-54.34 -11.58,-53.52 -9.73,-52.69 -8.20,-51.36 -6.67,-50.03 -5.66,-48.12 -4.64,-46.22 -4.27,-43.82 -3.89,-41.42 -4.07,-38.61 -4.24,-35.80 -5.22,-32.23 -6.19,-28.66 -7.77,-23.74 -9.34,-18.81 -11.16,-13.00 -12.98,-7.18 -14.62,-1.56 -16.26,4.05 -17.24,8.13 -18.22,12.22 -18.64,14.51 -19.05,16.81 -19.52,18.08 -19.99,19.36 -20.99,20.16 -21.99,20.97 -23.62,21.55 -25.24,22.13 -27.81,22.29 -30.37,22.45 -32.27,22.54 -34.18,22.62 -36.99,21.22 -39.80,19.82 -39.99,19.58 -40.18,19.34 -40.29,19.05 -40.39,18.76 -40.39,18.46 -40.40,18.15 -40.31,17.86 -40.21,17.57 -40.03,17.32 -39.85,17.07 -39.60,16.90 -39.35,16.72 -39.06,16.63 -38.76,16.55 -38.46,16.56 -38.15,16.57 -37.87,16.68 -37.58,16.78 -37.34,16.98 -37.11,17.17 -36.94,17.43 -36.78,17.69 -36.71,17.99 -36.64,18.29 -36.67,18.59 -36.69,18.90 -36.82,19.18 -36.94,19.46 -37.15,19.68 -37.35,19.91 -37.62,20.06 -37.89,20.21 -38.19,20.26 -38.49,20.32 -38.80,20.27 -39.10,20.23 -39.37,20.09 -39.65,19.95 -39.86,19.73 -40.07,19.51 -40.21,19.24 -40.34,18.96 -40.38,18.66 -40.42,18.35 -40.36,18.05 -40.30,17.75 -40.14,17.49 -39.99,17.22 -39.76,17.02 -39.53,16.82 -39.25,16.70 -38.97,16.58 -38.66,16.56 -38.35,16.54 -38.06,16.62 -37.76,16.69 -37.51,16.86 -37.25,17.03 -37.25,17.03 -37.25,17.03 -35.78,18.07 -34.30,19.12 -32.48,19.04 -30.66,18.96 -28.52,18.72 -26.37,18.48 -25.04,18.13 -23.71,17.78 -22.71,17.04 -21.70,16.31 -21.29,13.95 -20.87,11.59 -19.89,7.43 -18.91,3.28 -17.29,-2.36 -15.67,-8.02 -13.88,-13.85 -12.09,-19.68 -10.58,-24.56 -9.07,-29.44 -8.21,-32.71 -7.35,-35.98 -7.25,-38.44 -7.15,-40.90 -7.48,-42.78 -7.82,-44.67 -8.47,-46.08 -9.13,-47.49 -10.17,-48.55 -11.22,-49.61 -12.74,-50.34 -14.25,-51.07 -16.18,-51.53 -18.10,-51.99 -19.59,-52.43 -21.07,-52.88 -22.35,-52.77 -23.62,-52.67 -24.57,-52.18 -25.51,-51.70 -27.11,-50.18 -28.71,-48.66 -31.19,-45.68 -33.68,-42.70 -36.17,-39.14 -38.66,-35.57 -39.94,-31.67 -41.23,-27.76 -41.64,-24.52 -42.05,-21.28 -41.73,-18.82 -41.41,-16.37 -40.79,-14.55 -40.17,-12.73 -39.23,-11.84 -38.28,-10.96 -36.24,-10.12 -34.20,-9.29 -31.18,-8.58 -28.16,-7.88 -23.76,-6.88 -19.36,-5.88 -14.39,-4.84 -9.41,-3.80 -4.52,-2.70 0.37,-1.59 0.56,-1.52 0.74,-1.45 0.91,-1.34 1.07,-1.23 1.20,-1.09 1.33,-0.94 1.43,-0.77 1.52,-0.59 1.57,-0.40 1.62,-0.21 1.62,-0.01 1.62,0.18 1.58,0.37 1.53,0.56 1.44,0.74 1.35,0.91 1.22,1.06 1.09,1.21 0.93,1.32 0.77,1.44 0.59,1.51 0.40,1.58 0.21,1.61 0.01,1.63 -0.17,1.61 -0.37,1.59 -0.37,1.59 L -0.37,1.59 Z"></path></g><g transform="translate(1019 556.125) rotate(0 0.00004999999998744897 0.00005000000000165983)" stroke="none"><path fill="#000" d="M 1.57,-1.57 Q 1.57,-1.57 1.77,-1.27 1.98,-0.98 2.09,-0.64 2.20,-0.29 2.19,0.05 2.18,0.41 2.05,0.75 1.93,1.09 1.70,1.37 1.48,1.65 1.18,1.84 0.87,2.04 0.52,2.12 0.18,2.21 -0.17,2.18 -0.53,2.15 -0.86,2.01 -1.19,1.87 -1.46,1.63 -1.73,1.39 -1.90,1.07 -2.08,0.76 -2.15,0.41 -2.21,0.05 -2.17,-0.29 -2.12,-0.65 -1.96,-0.97 -1.80,-1.29 -1.54,-1.54 -1.29,-1.80 -0.97,-1.96 -0.65,-2.12 -0.29,-2.17 0.06,-2.21 0.41,-2.15 0.76,-2.08 1.07,-1.90 1.39,-1.73 1.63,-1.46 1.87,-1.19 2.01,-0.86 2.15,-0.53 2.18,-0.17 2.21,0.18 2.12,0.52 2.03,0.87 1.84,1.18 1.65,1.48 1.37,1.70 1.09,1.93 0.75,2.05 0.41,2.18 0.05,2.19 -0.30,2.20 -0.64,2.09 -0.98,1.98 -1.27,1.77 -1.57,1.56 -1.57,1.57 -1.57,1.57 -1.73,1.35 -1.90,1.14 -2.01,0.90 -2.12,0.66 -2.16,0.39 -2.21,0.13 -2.20,-0.13 -2.18,-0.40 -2.10,-0.65 -2.02,-0.91 -1.88,-1.14 -1.74,-1.36 -1.55,-1.55 -1.36,-1.74 -1.14,-1.88 -0.91,-2.02 -0.65,-2.10 -0.40,-2.18 -0.13,-2.20 0.13,-2.21 0.39,-2.16 0.66,-2.12 0.90,-2.01 1.14,-1.90 1.35,-1.73 1.57,-1.57 1.57,-1.57 L 1.57,-1.57 Z"></path></g><g transform="translate(1114 595.125) rotate(0 -36.5 -3.5)" stroke="none"><path fill="#000" d="M 0.46,1.55 Q 0.46,1.55 -2.42,2.37 -5.30,3.19 -8.86,4.11 -12.41,5.03 -17.20,5.43 -21.99,5.83 -27.57,5.12 -33.15,4.41 -39.26,2.94 -45.38,1.47 -50.01,-0.02 -54.64,-1.52 -58.09,-3.04 -61.53,-4.56 -64.13,-5.78 -66.73,-7.00 -68.44,-7.75 -70.14,-8.51 -71.69,-9.37 -73.23,-10.23 -73.43,-10.40 -73.62,-10.57 -73.76,-10.80 -73.89,-11.03 -73.94,-11.29 -73.99,-11.54 -73.96,-11.80 -73.92,-12.06 -73.81,-12.30 -73.69,-12.54 -73.51,-12.72 -73.32,-12.91 -73.09,-13.03 -72.86,-13.15 -72.60,-13.19 -72.34,-13.22 -72.08,-13.18 -71.82,-13.13 -71.59,-13.00 -71.36,-12.87 -71.18,-12.68 -71.01,-12.49 -70.90,-12.24 -70.80,-12.00 -70.77,-11.74 -70.75,-11.48 -70.81,-11.23 -70.87,-10.97 -71.01,-10.75 -71.15,-10.53 -71.35,-10.36 -71.56,-10.19 -71.80,-10.10 -72.05,-10.01 -72.31,-10.00 -72.57,-9.99 -72.83,-10.07 -73.08,-10.14 -73.29,-10.29 -73.51,-10.44 -73.66,-10.66 -73.82,-10.87 -73.89,-11.12 -73.97,-11.37 -73.97,-11.63 -73.96,-11.89 -73.87,-12.14 -73.79,-12.39 -73.62,-12.59 -73.46,-12.80 -73.24,-12.94 -73.02,-13.09 -72.77,-13.15 -72.51,-13.22 -72.25,-13.20 -71.99,-13.18 -71.75,-13.08 -71.50,-12.97 -71.50,-12.97 -71.50,-12.97 -70.20,-12.05 -68.89,-11.12 -67.25,-10.27 -65.60,-9.42 -63.03,-8.22 -60.45,-7.02 -57.13,-5.57 -53.80,-4.11 -49.27,-2.65 -44.74,-1.20 -38.76,0.21 -32.79,1.63 -27.51,2.30 -22.22,2.98 -17.69,2.58 -13.17,2.18 -9.68,1.21 -6.19,0.25 -3.32,-0.65 -0.46,-1.55 -0.27,-1.58 -0.08,-1.62 0.11,-1.60 0.30,-1.59 0.49,-1.53 0.68,-1.47 0.84,-1.37 1.01,-1.26 1.15,-1.12 1.28,-0.98 1.38,-0.81 1.48,-0.65 1.54,-0.46 1.59,-0.27 1.60,-0.08 1.61,0.11 1.58,0.30 1.54,0.49 1.46,0.67 1.38,0.85 1.25,1.00 1.13,1.16 0.98,1.27 0.82,1.39 0.64,1.47 0.46,1.55 0.46,1.55 L 0.46,1.55 Z"></path></g><g transform="translate(1116 579.125) rotate(0 -118 -9.5)" stroke="none"><path fill="#000" d="M -0.23,1.79 Q -0.23,1.79 -4.54,1.15 -8.84,0.51 -15.48,0.22 -22.12,-0.06 -31.23,0.37 -40.35,0.80 -49.42,1.26 -58.50,1.73 -66.09,2.20 -73.68,2.68 -78.36,2.87 -83.04,3.07 -85.31,3.15 -87.59,3.23 -88.84,3.39 -90.09,3.55 -91.32,3.91 -92.56,4.28 -93.80,4.51 -95.05,4.75 -96.27,5.12 -97.49,5.49 -99.68,5.59 -101.88,5.69 -104.22,5.68 -106.56,5.66 -109.27,5.63 -111.99,5.59 -114.58,5.56 -117.17,5.53 -119.70,5.50 -122.24,5.47 -124.68,5.73 -127.11,6.00 -129.67,6.10 -132.22,6.21 -134.74,6.26 -137.27,6.30 -140.35,6.31 -143.44,6.32 -146.47,6.33 -149.51,6.33 -151.95,6.33 -154.39,6.33 -156.14,6.12 -157.88,5.91 -159.28,5.57 -160.68,5.23 -162.05,4.44 -163.42,3.66 -164.67,2.35 -165.91,1.04 -167.47,-0.97 -169.02,-2.99 -171.36,-5.86 -173.71,-8.73 -176.39,-11.66 -179.07,-14.59 -181.84,-16.63 -184.60,-18.67 -186.60,-19.83 -188.60,-20.98 -190.46,-21.43 -192.32,-21.87 -194.79,-22.08 -197.25,-22.29 -200.16,-21.55 -203.06,-20.81 -206.64,-19.64 -210.22,-18.47 -214.34,-17.10 -218.47,-15.74 -222.30,-14.86 -226.13,-13.98 -228.57,-13.33 -231.01,-12.68 -232.93,-12.18 -234.84,-11.67 -235.09,-11.66 -235.34,-11.65 -235.58,-11.72 -235.82,-11.79 -236.02,-11.93 -236.22,-12.07 -236.37,-12.27 -236.52,-12.47 -236.60,-12.70 -236.67,-12.94 -236.67,-13.19 -236.67,-13.43 -236.59,-13.67 -236.50,-13.90 -236.35,-14.10 -236.20,-14.29 -235.99,-14.43 -235.79,-14.57 -235.55,-14.63 -235.31,-14.70 -235.06,-14.68 -234.81,-14.66 -234.58,-14.57 -234.35,-14.48 -234.16,-14.31 -233.98,-14.15 -233.85,-13.94 -233.73,-13.72 -233.68,-13.48 -233.62,-13.24 -233.65,-12.99 -233.68,-12.74 -233.79,-12.52 -233.90,-12.30 -234.07,-12.12 -234.24,-11.94 -234.46,-11.83 -234.68,-11.71 -234.93,-11.67 -235.17,-11.64 -235.42,-11.68 -235.66,-11.72 -235.88,-11.84 -236.10,-11.96 -236.27,-12.14 -236.44,-12.32 -236.54,-12.55 -236.64,-12.78 -236.66,-13.02 -236.69,-13.27 -236.63,-13.51 -236.58,-13.75 -236.45,-13.96 -236.31,-14.18 -236.12,-14.33 -235.93,-14.49 -235.70,-14.58 -235.47,-14.67 -235.47,-14.67 -235.47,-14.67 -233.58,-14.96 -231.70,-15.25 -229.21,-15.92 -226.73,-16.58 -223.02,-17.44 -219.32,-18.29 -215.19,-19.67 -211.06,-21.04 -207.39,-22.25 -203.72,-23.47 -200.40,-24.27 -197.07,-25.06 -194.36,-24.85 -191.64,-24.63 -189.42,-24.07 -187.20,-23.51 -185.02,-22.30 -182.84,-21.09 -179.82,-18.91 -176.80,-16.74 -173.99,-13.81 -171.18,-10.87 -168.72,-8.07 -166.26,-5.26 -164.62,-3.41 -162.98,-1.55 -162.13,-0.50 -161.29,0.55 -160.44,1.26 -159.58,1.97 -158.47,2.45 -157.35,2.92 -155.87,3.29 -154.39,3.65 -151.95,3.64 -149.52,3.63 -146.49,3.62 -143.46,3.60 -140.39,3.57 -137.32,3.54 -134.84,3.48 -132.36,3.41 -129.90,3.28 -127.44,3.14 -124.85,2.82 -122.25,2.50 -119.72,2.47 -117.18,2.43 -114.60,2.38 -112.02,2.32 -109.34,2.23 -106.65,2.15 -104.40,2.01 -102.15,1.87 -100.32,1.68 -98.48,1.49 -96.99,1.18 -95.49,0.86 -94.40,0.84 -93.31,0.81 -91.75,0.57 -90.20,0.33 -88.94,0.41 -87.69,0.50 -85.43,0.40 -83.16,0.30 -78.51,0.07 -73.86,-0.14 -66.26,-0.65 -58.65,-1.17 -49.58,-1.68 -40.50,-2.20 -31.25,-2.70 -22.00,-3.21 -15.20,-3.01 -8.40,-2.81 -4.08,-2.30 0.23,-1.79 0.45,-1.74 0.66,-1.68 0.85,-1.58 1.04,-1.48 1.20,-1.33 1.37,-1.18 1.49,-1.00 1.61,-0.82 1.69,-0.61 1.76,-0.41 1.79,-0.19 1.81,0.02 1.78,0.23 1.75,0.45 1.67,0.65 1.59,0.86 1.46,1.04 1.34,1.21 1.17,1.36 1.01,1.50 0.81,1.60 0.62,1.70 0.41,1.75 0.19,1.80 -0.02,1.80 -0.23,1.79 -0.23,1.79 L -0.23,1.79 Z"></path></g><g transform="translate(574 773.125) rotate(0 57 31.5)" stroke="none"><path fill="#000" d="M 1.53,0.30 Q 1.53,0.30 0.63,4.61 -0.25,8.91 -0.93,13.86 -1.60,18.80 -2.18,24.35 -2.76,29.90 -2.72,35.35 -2.68,40.80 -1.82,45.92 -0.96,51.04 0.52,55.46 2.01,59.87 4.31,63.37 6.61,66.87 9.01,69.80 11.41,72.73 14.36,75.05 17.31,77.38 19.96,78.93 22.62,80.48 24.91,81.73 27.21,82.98 29.33,84.08 31.45,85.19 33.43,85.91 35.41,86.64 37.31,86.91 39.22,87.18 41.53,87.62 43.84,88.05 46.46,88.22 49.09,88.40 51.28,88.19 53.48,87.98 56.38,87.34 59.28,86.69 62.45,85.29 65.61,83.90 69.50,81.34 73.38,78.77 77.94,75.65 82.50,72.53 86.38,68.96 90.26,65.39 93.64,61.86 97.01,58.34 99.57,55.15 102.13,51.96 104.38,49.14 106.64,46.33 108.41,43.48 110.19,40.62 111.50,37.73 112.81,34.84 113.95,32.15 115.09,29.47 115.81,27.94 116.53,26.41 116.44,24.31 116.35,22.22 115.97,20.91 115.59,19.60 114.94,17.96 114.30,16.33 113.22,13.86 112.14,11.40 110.58,8.67 109.03,5.93 107.50,3.30 105.98,0.66 104.57,-0.92 103.15,-2.51 101.89,-4.12 100.62,-5.74 99.75,-6.60 98.88,-7.47 96.80,-8.77 94.71,-10.07 93.32,-11.01 91.93,-11.94 90.41,-13.31 88.89,-14.67 87.47,-15.76 86.05,-16.84 84.32,-18.24 82.58,-19.63 80.79,-20.77 78.99,-21.91 76.90,-22.65 74.82,-23.40 72.49,-24.03 70.17,-24.65 67.82,-24.92 65.47,-25.18 63.32,-25.31 61.17,-25.43 58.82,-25.49 56.47,-25.55 54.03,-25.58 51.60,-25.61 49.99,-25.53 48.37,-25.44 46.70,-25.25 45.03,-25.05 43.99,-24.68 42.95,-24.31 41.01,-23.19 39.07,-22.07 37.69,-21.22 36.31,-20.36 34.54,-19.26 32.76,-18.16 30.83,-16.86 28.89,-15.55 27.18,-14.42 25.47,-13.28 23.88,-12.21 22.30,-11.14 21.15,-10.12 20.01,-9.10 18.97,-8.08 17.94,-7.06 16.83,-6.20 15.72,-5.34 14.82,-4.50 13.92,-3.65 12.83,-2.86 11.74,-2.07 10.16,-0.85 8.58,0.35 7.48,1.33 6.38,2.31 4.28,2.50 2.18,2.70 1.76,2.61 1.35,2.52 0.99,2.31 0.63,2.09 0.36,1.78 0.08,1.46 -0.07,1.07 -0.23,0.68 -0.25,0.26 -0.28,-0.15 -0.17,-0.55 -0.06,-0.96 0.16,-1.31 0.40,-1.66 0.73,-1.92 1.06,-2.17 1.46,-2.31 1.86,-2.45 2.28,-2.45 2.70,-2.45 3.10,-2.32 3.50,-2.19 3.83,-1.94 4.17,-1.69 4.41,-1.34 4.65,-1.00 4.76,-0.59 4.88,-0.19 4.86,0.22 4.84,0.64 4.68,1.03 4.53,1.43 4.26,1.75 3.99,2.07 3.63,2.29 3.28,2.51 2.87,2.60 2.46,2.69 2.04,2.65 1.62,2.61 1.24,2.44 0.85,2.26 0.55,1.98 0.24,1.69 0.04,1.32 -0.15,0.95 -0.22,0.54 -0.29,0.12 -0.23,-0.28 -0.16,-0.70 0.02,-1.07 0.22,-1.44 0.52,-1.74 0.82,-2.03 1.20,-2.21 1.58,-2.38 2.00,-2.43 2.42,-2.48 2.42,-2.48 2.42,-2.48 3.43,-2.14 4.44,-1.80 5.22,-2.86 6.01,-3.91 7.62,-4.90 9.23,-5.88 10.16,-6.41 11.08,-6.94 12.22,-7.86 13.36,-8.77 14.33,-9.35 15.31,-9.93 16.48,-10.93 17.66,-11.93 19.00,-12.98 20.33,-14.02 21.89,-15.09 23.45,-16.16 25.07,-17.35 26.69,-18.55 28.54,-20.02 30.38,-21.50 32.10,-22.89 33.81,-24.27 35.22,-25.20 36.64,-26.14 38.02,-26.95 39.41,-27.75 40.44,-28.14 41.48,-28.53 43.26,-28.73 45.04,-28.94 46.71,-28.73 48.39,-28.52 50.00,-28.42 51.62,-28.32 54.07,-28.31 56.53,-28.30 58.92,-28.26 61.31,-28.23 63.54,-28.13 65.78,-28.03 68.34,-27.77 70.90,-27.51 73.36,-26.91 75.82,-26.31 78.23,-25.50 80.64,-24.70 82.65,-23.56 84.67,-22.41 86.49,-21.14 88.32,-19.86 89.86,-18.72 91.41,-17.58 92.80,-16.42 94.18,-15.26 95.58,-14.30 96.98,-13.34 98.24,-12.41 99.50,-11.49 100.50,-10.59 101.49,-9.69 102.24,-8.63 102.99,-7.58 104.17,-6.04 105.35,-4.49 106.99,-2.71 108.63,-0.92 110.23,1.67 111.83,4.27 113.57,7.09 115.31,9.90 116.57,12.39 117.83,14.88 118.63,16.77 119.44,18.66 119.76,20.23 120.08,21.81 120.12,23.49 120.17,25.16 119.67,26.49 119.17,27.82 118.34,29.16 117.51,30.50 116.35,33.21 115.20,35.92 113.81,38.96 112.42,42.01 110.55,44.99 108.69,47.97 106.44,50.79 104.18,53.60 101.55,56.88 98.91,60.16 95.48,63.74 92.04,67.33 88.01,71.02 83.99,74.70 79.41,77.84 74.83,80.97 70.75,83.65 66.67,86.32 63.27,87.80 59.87,89.27 56.79,89.95 53.72,90.63 51.32,90.84 48.92,91.06 46.14,90.87 43.36,90.69 41.07,90.27 38.79,89.85 36.65,89.48 34.50,89.11 32.37,88.32 30.24,87.53 28.09,86.41 25.95,85.30 23.61,84.03 21.28,82.77 18.47,81.11 15.66,79.46 12.51,76.94 9.35,74.43 6.86,71.38 4.36,68.34 1.92,64.54 -0.52,60.75 -2.08,56.13 -3.64,51.50 -4.55,46.17 -5.45,40.83 -5.50,35.22 -5.56,29.62 -5.01,24.02 -4.46,18.42 -3.82,13.38 -3.19,8.33 -2.36,4.01 -1.53,-0.30 -1.47,-0.48 -1.41,-0.66 -1.31,-0.82 -1.21,-0.98 -1.07,-1.11 -0.94,-1.24 -0.78,-1.33 -0.61,-1.43 -0.43,-1.48 -0.25,-1.54 -0.06,-1.54 0.11,-1.55 0.30,-1.52 0.48,-1.48 0.65,-1.40 0.82,-1.32 0.97,-1.20 1.12,-1.08 1.23,-0.93 1.34,-0.78 1.42,-0.61 1.49,-0.44 1.52,-0.25 1.56,-0.06 1.54,0.11 1.53,0.30 1.53,0.30 L 1.53,0.30 Z"></path></g><g transform="translate(1070 970) rotate(0 0.00004999999998744897 0.00004999999998744897)" stroke="none"><path fill="#000" d="M 1.57,-1.57 Q 1.57,-1.57 1.77,-1.27 1.98,-0.98 2.09,-0.64 2.20,-0.29 2.19,0.05 2.18,0.41 2.05,0.75 1.93,1.09 1.70,1.37 1.48,1.65 1.18,1.84 0.87,2.04 0.52,2.12 0.18,2.21 -0.17,2.18 -0.53,2.15 -0.86,2.01 -1.19,1.87 -1.46,1.63 -1.73,1.39 -1.90,1.07 -2.08,0.76 -2.15,0.41 -2.21,0.05 -2.17,-0.29 -2.12,-0.65 -1.96,-0.97 -1.80,-1.29 -1.54,-1.54 -1.29,-1.80 -0.97,-1.96 -0.65,-2.12 -0.29,-2.17 0.06,-2.21 0.41,-2.15 0.76,-2.08 1.07,-1.90 1.39,-1.73 1.63,-1.46 1.87,-1.19 2.01,-0.86 2.15,-0.53 2.18,-0.17 2.21,0.18 2.12,0.52 2.03,0.87 1.84,1.18 1.65,1.48 1.37,1.70 1.09,1.93 0.75,2.05 0.41,2.18 0.05,2.19 -0.30,2.20 -0.64,2.09 -0.98,1.98 -1.27,1.77 -1.57,1.56 -1.57,1.57 -1.57,1.57 -1.73,1.35 -1.90,1.14 -2.01,0.90 -2.12,0.66 -2.16,0.39 -2.21,0.13 -2.20,-0.13 -2.18,-0.40 -2.10,-0.65 -2.02,-0.91 -1.88,-1.14 -1.74,-1.36 -1.55,-1.55 -1.36,-1.74 -1.14,-1.88 -0.91,-2.02 -0.65,-2.10 -0.40,-2.18 -0.13,-2.20 0.13,-2.21 0.39,-2.16 0.66,-2.12 0.90,-2.01 1.14,-1.90 1.35,-1.73 1.57,-1.57 1.57,-1.57 L 1.57,-1.57 Z"></path></g><g transform="translate(639 783.125) rotate(0 0.00005000000000165983 0.00004999999998744897)" stroke="none"><path fill="#000" d="M 1.57,-1.57 Q 1.57,-1.57 1.77,-1.27 1.98,-0.98 2.09,-0.64 2.20,-0.29 2.19,0.05 2.18,0.41 2.05,0.75 1.93,1.09 1.70,1.37 1.48,1.65 1.18,1.84 0.87,2.04 0.52,2.12 0.18,2.21 -0.17,2.18 -0.53,2.15 -0.86,2.01 -1.19,1.87 -1.46,1.63 -1.73,1.39 -1.90,1.07 -2.08,0.76 -2.15,0.41 -2.21,0.05 -2.17,-0.29 -2.12,-0.65 -1.96,-0.97 -1.80,-1.29 -1.54,-1.54 -1.29,-1.80 -0.97,-1.96 -0.65,-2.12 -0.29,-2.17 0.06,-2.21 0.41,-2.15 0.76,-2.08 1.07,-1.90 1.39,-1.73 1.63,-1.46 1.87,-1.19 2.01,-0.86 2.15,-0.53 2.18,-0.17 2.21,0.18 2.12,0.52 2.03,0.87 1.84,1.18 1.65,1.48 1.37,1.70 1.09,1.93 0.75,2.05 0.41,2.18 0.05,2.19 -0.30,2.20 -0.64,2.09 -0.98,1.98 -1.27,1.77 -1.57,1.56 -1.57,1.57 -1.57,1.57 -1.73,1.35 -1.90,1.14 -2.01,0.90 -2.12,0.66 -2.16,0.39 -2.21,0.13 -2.20,-0.13 -2.18,-0.40 -2.10,-0.65 -2.02,-0.91 -1.88,-1.14 -1.74,-1.36 -1.55,-1.55 -1.36,-1.74 -1.14,-1.88 -0.91,-2.02 -0.65,-2.10 -0.40,-2.18 -0.13,-2.20 0.13,-2.21 0.39,-2.16 0.66,-2.12 0.90,-2.01 1.14,-1.90 1.35,-1.73 1.57,-1.57 1.57,-1.57 L 1.57,-1.57 Z"></path></g><g transform="translate(600 821.125) rotate(0 29.5 0)" stroke="none"><path fill="#000" d="M 0.50,-1.50 Q 0.50,-1.50 2.23,-0.96 3.97,-0.41 6.23,0.78 8.50,1.97 10.37,3.40 12.25,4.83 14.08,5.95 15.91,7.07 17.76,7.80 19.62,8.54 21.88,9.45 24.15,10.37 26.48,11.03 28.81,11.68 31.44,11.96 34.08,12.23 36.64,12.35 39.20,12.48 40.75,12.17 42.30,11.86 43.44,11.40 44.59,10.94 45.44,9.72 46.28,8.50 46.80,6.87 47.31,5.23 48.53,2.63 49.74,0.02 50.84,-2.44 51.93,-4.91 53.02,-6.89 54.11,-8.87 54.76,-10.29 55.42,-11.71 56.03,-12.31 56.64,-12.91 56.51,-13.16 56.39,-13.41 56.36,-13.69 56.33,-13.97 56.39,-14.25 56.44,-14.52 56.59,-14.77 56.73,-15.01 56.94,-15.19 57.15,-15.38 57.41,-15.48 57.67,-15.59 57.96,-15.61 58.24,-15.62 58.51,-15.55 58.78,-15.48 59.01,-15.32 59.25,-15.17 59.42,-14.95 59.59,-14.72 59.68,-14.46 59.78,-14.19 59.78,-13.91 59.78,-13.63 59.69,-13.36 59.61,-13.10 59.44,-12.87 59.27,-12.64 59.04,-12.48 58.81,-12.33 58.54,-12.25 58.27,-12.17 57.99,-12.18 57.71,-12.19 57.44,-12.30 57.18,-12.40 56.97,-12.58 56.75,-12.76 56.60,-13.00 56.46,-13.24 56.39,-13.51 56.33,-13.79 56.36,-14.06 56.39,-14.34 56.50,-14.60 56.62,-14.86 56.81,-15.06 57.00,-15.27 57.25,-15.40 57.49,-15.54 57.77,-15.58 58.05,-15.63 58.33,-15.59 58.60,-15.55 58.85,-15.42 59.10,-15.29 59.30,-15.09 59.49,-14.88 59.49,-14.88 59.49,-14.88 58.97,-12.52 58.45,-10.15 57.66,-8.78 56.87,-7.42 55.92,-5.53 54.97,-3.65 53.98,-1.10 52.99,1.44 52.01,3.89 51.02,6.34 50.41,8.47 49.81,10.61 48.78,11.93 47.76,13.25 46.68,13.72 45.59,14.20 44.15,14.52 42.72,14.83 40.90,14.99 39.09,15.16 36.44,15.04 33.80,14.92 30.94,14.62 28.08,14.32 25.60,13.63 23.13,12.95 20.85,12.06 18.58,11.17 16.51,10.36 14.44,9.55 12.45,8.38 10.46,7.22 8.77,5.98 7.07,4.75 5.00,3.73 2.92,2.71 1.21,2.11 -0.50,1.50 -0.67,1.42 -0.84,1.34 -0.99,1.22 -1.14,1.10 -1.26,0.94 -1.37,0.79 -1.45,0.61 -1.52,0.44 -1.55,0.25 -1.58,0.06 -1.57,-0.12 -1.55,-0.31 -1.49,-0.49 -1.43,-0.68 -1.33,-0.84 -1.23,-1.00 -1.09,-1.13 -0.95,-1.27 -0.78,-1.36 -0.62,-1.46 -0.43,-1.51 -0.25,-1.56 -0.06,-1.57 0.12,-1.58 0.31,-1.54 0.50,-1.50 0.50,-1.50 L 0.50,-1.50 Z"></path></g><g transform="translate(728 798.125) rotate(0 46 12.5)" stroke="none"><path fill="#000" d="M 0.61,-1.43 Q 0.61,-1.43 2.61,-0.54 4.60,0.34 7.61,0.98 10.62,1.61 14.83,2.48 19.04,3.35 24.51,4.01 29.98,4.66 36.59,4.94 43.20,5.22 50.04,5.35 56.88,5.47 62.95,5.53 69.02,5.58 73.62,5.61 78.21,5.63 81.88,5.64 85.56,5.65 87.40,5.60 89.23,5.55 87.09,5.23 84.94,4.91 83.61,4.35 82.28,3.80 80.72,2.90 79.16,2.01 77.76,1.43 76.37,0.84 75.29,0.27 74.21,-0.28 73.09,-0.70 71.97,-1.12 71.21,-1.32 70.45,-1.51 70.18,-1.63 69.91,-1.74 69.67,-1.91 69.43,-2.08 69.24,-2.30 69.06,-2.53 68.93,-2.79 68.80,-3.05 68.73,-3.34 68.67,-3.62 68.68,-3.91 68.69,-4.21 68.76,-4.49 68.84,-4.77 68.98,-5.03 69.12,-5.28 69.32,-5.50 69.52,-5.71 69.77,-5.87 70.01,-6.03 70.29,-6.13 70.56,-6.22 70.85,-6.25 71.15,-6.28 71.43,-6.24 71.72,-6.19 72.79,-5.98 73.86,-5.77 76.13,-4.92 78.39,-4.07 80.62,-2.73 82.85,-1.40 84.67,0.09 86.49,1.59 87.89,2.79 89.29,4.00 90.12,5.63 90.96,7.26 91.54,8.72 92.11,10.19 92.42,11.85 92.73,13.50 92.89,14.78 93.06,16.05 92.85,18.05 92.64,20.05 91.12,21.72 89.61,23.39 87.60,24.20 85.58,25.01 82.66,25.84 79.74,26.66 77.13,27.51 74.51,28.36 71.72,29.44 68.93,30.52 68.60,30.58 68.26,30.64 67.93,30.59 67.60,30.54 67.30,30.39 67.00,30.23 66.76,29.99 66.53,29.75 66.38,29.45 66.24,29.14 66.20,28.81 66.15,28.48 66.22,28.15 66.29,27.82 66.46,27.52 66.63,27.23 66.88,27.01 67.13,26.79 67.45,26.66 67.76,26.53 68.09,26.51 68.43,26.49 68.75,26.57 69.08,26.66 69.36,26.84 69.64,27.03 69.85,27.29 70.06,27.56 70.17,27.87 70.28,28.19 70.29,28.53 70.29,28.86 70.19,29.18 70.09,29.50 69.89,29.78 69.69,30.05 69.41,30.24 69.13,30.43 68.81,30.53 68.49,30.62 68.15,30.61 67.82,30.60 67.50,30.48 67.19,30.36 66.93,30.14 66.67,29.93 66.49,29.64 66.31,29.36 66.23,29.03 66.16,28.70 66.19,28.36 66.22,28.03 66.36,27.72 66.49,27.41 66.72,27.17 66.95,26.92 67.25,26.76 67.54,26.59 67.54,26.59 67.54,26.60 70.37,25.69 73.19,24.78 75.80,23.70 78.40,22.63 81.00,21.62 83.59,20.62 85.57,19.63 87.55,18.64 88.10,17.52 88.65,16.39 88.63,15.26 88.60,14.13 88.46,12.84 88.32,11.56 87.85,10.15 87.38,8.74 87.09,7.67 86.80,6.60 85.56,5.50 84.32,4.40 82.65,3.20 80.97,1.99 79.03,1.03 77.09,0.06 74.95,-0.44 72.80,-0.95 71.62,-1.23 70.45,-1.51 70.18,-1.63 69.91,-1.74 69.67,-1.91 69.43,-2.08 69.24,-2.30 69.06,-2.53 68.93,-2.79 68.80,-3.05 68.73,-3.34 68.67,-3.62 68.68,-3.91 68.69,-4.21 68.76,-4.49 68.84,-4.77 68.98,-5.03 69.12,-5.28 69.32,-5.49 69.52,-5.71 69.77,-5.87 70.01,-6.03 70.29,-6.13 70.56,-6.22 70.85,-6.25 71.15,-6.28 71.43,-6.24 71.72,-6.19 72.72,-5.75 73.73,-5.31 75.87,-4.12 78.02,-2.92 79.60,-2.21 81.18,-1.50 82.57,-0.69 83.95,0.10 85.48,0.84 87.02,1.57 88.30,2.42 89.58,3.26 90.73,4.11 91.87,4.96 91.81,6.31 91.74,7.66 90.51,8.04 89.29,8.43 87.42,8.37 85.55,8.31 81.88,8.30 78.20,8.30 73.60,8.28 69.00,8.26 62.92,8.22 56.84,8.17 49.96,8.06 43.09,7.95 36.37,7.68 29.66,7.41 24.07,6.76 18.48,6.11 14.26,5.28 10.04,4.44 6.74,3.77 3.44,3.10 1.41,2.26 -0.61,1.43 -0.77,1.34 -0.94,1.24 -1.07,1.11 -1.21,0.98 -1.31,0.82 -1.41,0.66 -1.47,0.48 -1.53,0.30 -1.54,0.12 -1.56,-0.06 -1.53,-0.25 -1.49,-0.43 -1.42,-0.61 -1.35,-0.78 -1.23,-0.93 -1.12,-1.08 -0.97,-1.20 -0.83,-1.32 -0.66,-1.40 -0.49,-1.48 -0.30,-1.52 -0.12,-1.55 0.06,-1.54 0.25,-1.54 0.43,-1.48 0.61,-1.43 0.61,-1.43 L 0.61,-1.43 Z"></path></g><g transform="translate(862 791.125) rotate(0 42 -6)" stroke="none"><path fill="#000" d="M 1.73,-0.31 Q 1.73,-0.31 2.25,2.85 2.76,6.03 3.26,11.47 3.75,16.90 4.80,22.87 5.85,28.83 6.86,34.26 7.88,39.69 8.58,43.14 9.29,46.58 10.71,44.77 12.12,42.97 14.56,38.21 16.99,33.46 20.96,26.77 24.92,20.08 32.37,8.61 39.82,-2.85 44.14,-9.43 48.46,-16.02 53.46,-23.42 58.47,-30.83 63.20,-37.43 67.92,-44.04 71.67,-48.87 75.42,-53.70 77.57,-56.60 79.73,-59.49 80.90,-61.67 82.07,-63.85 82.23,-64.04 82.40,-64.24 82.62,-64.37 82.84,-64.50 83.08,-64.56 83.33,-64.61 83.59,-64.58 83.84,-64.56 84.07,-64.45 84.30,-64.34 84.49,-64.17 84.67,-63.99 84.79,-63.77 84.91,-63.54 84.95,-63.29 84.99,-63.04 84.95,-62.79 84.91,-62.53 84.79,-62.31 84.67,-62.08 84.49,-61.91 84.30,-61.73 84.07,-61.63 83.84,-61.52 83.59,-61.49 83.33,-61.46 83.08,-61.52 82.83,-61.57 82.62,-61.71 82.40,-61.84 82.23,-62.03 82.07,-62.23 81.97,-62.46 81.88,-62.70 81.87,-62.95 81.85,-63.21 81.92,-63.45 81.99,-63.70 82.13,-63.91 82.28,-64.12 82.48,-64.28 82.68,-64.43 82.92,-64.51 83.16,-64.59 83.42,-64.59 83.67,-64.59 83.92,-64.51 84.16,-64.43 84.36,-64.27 84.56,-64.12 84.71,-63.91 84.85,-63.70 84.92,-63.45 84.98,-63.21 84.97,-62.95 84.96,-62.70 84.86,-62.46 84.77,-62.22 84.77,-62.22 84.77,-62.23 83.32,-60.06 81.88,-57.90 79.72,-54.97 77.56,-52.05 73.85,-47.25 70.15,-42.45 65.46,-35.86 60.77,-29.28 55.79,-21.88 50.82,-14.48 46.54,-7.87 42.26,-1.27 34.88,10.16 27.51,21.60 23.66,28.24 19.80,34.87 17.37,39.82 14.94,44.76 11.86,47.67 8.78,50.57 7.66,48.88 6.55,47.18 5.80,43.71 5.05,40.23 3.98,34.80 2.92,29.36 1.79,23.29 0.66,17.21 0.10,11.91 -0.46,6.61 -1.10,3.46 -1.73,0.31 -1.74,0.10 -1.76,-0.10 -1.72,-0.31 -1.68,-0.52 -1.59,-0.72 -1.50,-0.91 -1.37,-1.08 -1.24,-1.24 -1.07,-1.38 -0.91,-1.51 -0.71,-1.59 -0.52,-1.68 -0.31,-1.72 -0.10,-1.76 0.10,-1.74 0.32,-1.73 0.52,-1.67 0.72,-1.60 0.90,-1.49 1.09,-1.38 1.24,-1.23 1.39,-1.08 1.50,-0.90 1.61,-0.72 1.67,-0.51 1.73,-0.31 1.73,-0.31 L 1.73,-0.31 Z"></path></g><g transform="translate(1018 773.125) rotate(0 -51.5 61.5)" stroke="none"><path fill="#000" d="M 1.46,-0.54 Q 1.46,-0.54 2.29,1.76 3.12,4.07 4.33,7.36 5.53,10.64 6.91,14.95 8.29,19.25 9.74,25.73 11.20,32.21 12.67,39.84 14.15,47.48 15.35,55.63 16.55,63.79 17.06,72.19 17.58,80.58 17.79,89.04 18.01,97.50 17.23,104.62 16.45,111.74 15.25,117.67 14.05,123.59 13.24,126.15 12.43,128.71 12.16,130.13 11.89,131.55 10.89,132.59 9.89,133.63 7.96,133.79 6.03,133.95 2.52,132.34 -0.99,130.73 -6.79,126.23 -12.60,121.73 -21.08,113.76 -29.56,105.78 -41.46,94.94 -53.36,84.10 -66.75,71.71 -80.15,59.33 -90.75,48.57 -101.34,37.82 -106.73,31.50 -112.12,25.17 -114.73,21.28 -117.34,17.38 -118.22,14.37 -119.10,11.36 -118.29,8.14 -117.47,4.91 -115.90,2.36 -114.33,-0.18 -113.11,-2.06 -111.90,-3.94 -110.83,-5.41 -109.76,-6.88 -108.81,-8.53 -107.86,-10.17 -107.68,-10.37 -107.50,-10.57 -107.27,-10.70 -107.03,-10.84 -106.77,-10.88 -106.50,-10.93 -106.23,-10.90 -105.97,-10.86 -105.73,-10.74 -105.49,-10.61 -105.30,-10.42 -105.11,-10.23 -104.99,-9.99 -104.87,-9.75 -104.84,-9.48 -104.80,-9.21 -104.85,-8.95 -104.91,-8.68 -105.04,-8.45 -105.17,-8.22 -105.38,-8.04 -105.58,-7.86 -105.83,-7.75 -106.07,-7.65 -106.34,-7.63 -106.61,-7.61 -106.87,-7.67 -107.13,-7.74 -107.36,-7.89 -107.59,-8.03 -107.75,-8.25 -107.92,-8.46 -108.01,-8.71 -108.10,-8.96 -108.11,-9.23 -108.12,-9.50 -108.04,-9.76 -107.95,-10.02 -107.80,-10.24 -107.64,-10.45 -107.42,-10.61 -107.20,-10.76 -106.94,-10.84 -106.68,-10.92 -106.41,-10.91 -106.14,-10.90 -105.89,-10.81 -105.64,-10.71 -105.43,-10.54 -105.22,-10.37 -105.08,-10.14 -104.93,-9.92 -104.87,-9.65 -104.80,-9.39 -104.83,-9.12 -104.85,-8.85 -104.96,-8.61 -105.07,-8.36 -105.07,-8.36 -105.07,-8.36 -106.26,-6.71 -107.45,-5.05 -108.56,-3.78 -109.67,-2.50 -110.87,-0.63 -112.08,1.23 -113.49,3.44 -114.91,5.66 -115.71,8.25 -116.51,10.83 -115.79,13.36 -115.06,15.90 -112.54,19.64 -110.02,23.38 -104.69,29.62 -99.35,35.85 -88.78,46.54 -78.20,57.22 -64.78,69.56 -51.37,81.91 -39.41,92.72 -27.45,103.53 -19.03,111.34 -10.61,119.14 -5.07,123.35 0.47,127.56 3.36,128.87 6.26,130.17 7.68,130.31 9.10,130.45 9.50,129.18 9.91,127.91 10.68,125.49 11.46,123.06 12.64,117.26 13.81,111.45 14.58,104.51 15.34,97.56 15.12,89.16 14.90,80.75 14.39,72.47 13.88,64.18 12.68,56.09 11.47,48.00 9.99,40.41 8.50,32.82 7.05,26.47 5.61,20.12 4.22,15.89 2.83,11.66 1.57,8.39 0.32,5.12 -0.56,2.83 -1.46,0.54 -1.50,0.36 -1.55,0.18 -1.55,-0.00 -1.55,-0.19 -1.50,-0.37 -1.45,-0.55 -1.37,-0.72 -1.28,-0.89 -1.15,-1.03 -1.03,-1.17 -0.87,-1.27 -0.72,-1.38 -0.54,-1.45 -0.36,-1.51 -0.18,-1.54 0.00,-1.56 0.19,-1.53 0.37,-1.51 0.55,-1.44 0.73,-1.38 0.88,-1.27 1.04,-1.16 1.16,-1.02 1.28,-0.88 1.37,-0.71 1.46,-0.54 1.46,-0.54 L 1.46,-0.54 Z"></path></g><g transform="translate(857 609.125) rotate(0 88 -12.5)" stroke="none"><path fill="#000" d="M -0.89,-1.27 Q -0.89,-1.27 2.00,-3.26 4.89,-5.25 9.40,-7.30 13.91,-9.34 20.44,-11.64 26.97,-13.94 34.07,-16.06 41.16,-18.18 48.81,-19.95 56.45,-21.71 63.77,-22.76 71.08,-23.80 77.05,-24.52 83.02,-25.25 88.19,-25.56 93.35,-25.87 98.17,-25.71 103.00,-25.55 109.13,-24.61 115.25,-23.68 123.00,-22.42 130.76,-21.16 139.22,-19.76 147.69,-18.36 155.03,-17.19 162.36,-16.02 166.36,-15.23 170.37,-14.45 172.07,-14.19 173.78,-13.93 174.00,-13.85 174.23,-13.77 174.41,-13.62 174.60,-13.47 174.72,-13.27 174.85,-13.06 174.91,-12.83 174.96,-12.60 174.94,-12.36 174.92,-12.12 174.83,-11.91 174.73,-11.69 174.57,-11.51 174.41,-11.33 174.20,-11.22 174.00,-11.10 173.76,-11.06 173.53,-11.01 173.29,-11.05 173.05,-11.08 172.84,-11.19 172.63,-11.29 172.46,-11.46 172.29,-11.63 172.19,-11.85 172.08,-12.06 172.05,-12.30 172.02,-12.54 172.07,-12.77 172.11,-13.00 172.23,-13.21 172.35,-13.42 172.53,-13.58 172.71,-13.73 172.93,-13.83 173.15,-13.92 173.38,-13.94 173.62,-13.96 173.85,-13.90 174.08,-13.84 174.28,-13.71 174.48,-13.58 174.63,-13.39 174.78,-13.21 174.86,-12.98 174.94,-12.76 174.95,-12.52 174.95,-12.28 174.88,-12.05 174.81,-11.83 174.67,-11.63 174.53,-11.44 174.34,-11.30 174.14,-11.16 173.91,-11.09 173.69,-11.03 173.45,-11.03 173.21,-11.04 173.21,-11.04 173.21,-11.04 171.53,-11.45 169.86,-11.86 165.90,-12.64 161.94,-13.42 154.60,-14.59 147.26,-15.76 138.80,-17.15 130.33,-18.55 122.59,-19.80 114.85,-21.06 108.88,-21.98 102.91,-22.90 98.21,-23.05 93.51,-23.21 88.43,-22.90 83.35,-22.59 77.41,-21.86 71.46,-21.13 64.26,-20.09 57.07,-19.06 49.51,-17.30 41.96,-15.53 34.93,-13.41 27.91,-11.28 21.51,-9.00 15.11,-6.72 10.86,-4.76 6.60,-2.79 3.74,-0.75 0.89,1.27 0.72,1.36 0.56,1.45 0.38,1.50 0.19,1.54 0.01,1.55 -0.17,1.55 -0.36,1.50 -0.54,1.46 -0.71,1.37 -0.87,1.29 -1.02,1.16 -1.16,1.04 -1.27,0.88 -1.37,0.73 -1.44,0.55 -1.51,0.38 -1.53,0.19 -1.56,0.01 -1.54,-0.17 -1.51,-0.36 -1.45,-0.54 -1.38,-0.71 -1.28,-0.87 -1.17,-1.02 -1.03,-1.15 -0.89,-1.27 -0.89,-1.27 L -0.89,-1.27 Z"></path></g><g transform="translate(1035 594.125) rotate(0 -119.5 67)" stroke="none"><path fill="#d9480f" d="M 0.77,1.35 Q 0.77,1.35 -3.26,3.62 -7.30,5.89 -13.89,10.00 -20.47,14.10 -30.20,19.88 -39.93,25.65 -51.23,32.69 -62.54,39.73 -74.55,47.04 -86.55,54.35 -98.28,61.20 -110.00,68.04 -119.59,73.54 -129.17,79.03 -136.39,83.37 -143.62,87.71 -148.99,90.99 -154.36,94.27 -158.97,96.83 -163.58,99.39 -168.39,102.19 -173.20,104.99 -179.32,107.93 -185.44,110.87 -191.47,113.83 -197.50,116.79 -202.96,119.21 -208.42,121.64 -212.14,123.51 -215.86,125.38 -218.03,126.47 -220.20,127.56 -221.42,128.16 -222.65,128.77 -223.66,129.33 -224.66,129.90 -225.75,130.92 -226.83,131.94 -228.01,132.41 -229.18,132.87 -230.76,134.01 -232.34,135.16 -235.44,135.96 -238.54,136.77 -238.99,136.72 -239.44,136.67 -239.85,136.48 -240.26,136.29 -240.59,135.97 -240.92,135.66 -241.13,135.26 -241.34,134.86 -241.41,134.41 -241.48,133.97 -241.40,133.52 -241.33,133.07 -241.11,132.67 -240.90,132.28 -240.57,131.97 -240.24,131.66 -239.83,131.47 -239.42,131.28 -238.97,131.23 -238.52,131.19 -238.07,131.29 -237.63,131.39 -237.25,131.62 -236.86,131.86 -236.57,132.20 -236.28,132.55 -236.11,132.97 -235.95,133.39 -235.92,133.84 -235.90,134.30 -236.03,134.73 -236.15,135.17 -236.40,135.54 -236.66,135.91 -237.02,136.18 -237.38,136.46 -237.81,136.60 -238.24,136.74 -238.69,136.74 -239.15,136.74 -239.58,136.59 -240.00,136.44 -240.36,136.17 -240.72,135.89 -240.97,135.52 -241.22,135.14 -241.34,134.70 -241.46,134.27 -241.44,133.82 -241.41,133.36 -241.24,132.94 -241.07,132.53 -240.77,132.18 -240.48,131.84 -240.09,131.61 -239.70,131.38 -239.26,131.28 -238.82,131.19 -238.82,131.19 -238.82,131.19 -237.76,131.18 -236.70,131.18 -235.72,130.72 -234.74,130.26 -233.50,129.82 -232.26,129.38 -230.82,128.98 -229.37,128.58 -227.74,127.62 -226.11,126.66 -224.94,126.26 -223.77,125.85 -222.57,125.53 -221.38,125.21 -219.21,124.12 -217.04,123.03 -213.27,121.13 -209.49,119.23 -204.07,116.83 -198.66,114.43 -192.62,111.46 -186.59,108.49 -180.56,105.60 -174.53,102.70 -169.70,99.89 -164.86,97.07 -160.30,94.54 -155.74,92.01 -150.37,88.72 -144.99,85.42 -137.75,81.07 -130.50,76.71 -120.93,71.21 -111.37,65.71 -99.67,58.87 -87.97,52.02 -75.99,44.70 -64.01,37.39 -52.69,30.31 -41.37,23.23 -31.69,17.44 -22.01,11.65 -15.40,7.47 -8.79,3.30 -4.78,0.97 -0.77,-1.35 -0.60,-1.42 -0.42,-1.50 -0.24,-1.53 -0.05,-1.56 0.13,-1.54 0.31,-1.52 0.49,-1.46 0.67,-1.40 0.83,-1.30 0.99,-1.20 1.12,-1.06 1.25,-0.93 1.34,-0.76 1.43,-0.60 1.49,-0.42 1.54,-0.24 1.54,-0.05 1.55,0.13 1.51,0.31 1.47,0.50 1.39,0.67 1.31,0.84 1.19,0.98 1.07,1.13 0.92,1.24 0.77,1.35 0.77,1.35 L 0.77,1.35 Z"></path></g><g transform="translate(896 594.125) rotate(0 -25 73)" stroke="none"><path fill="#d9480f" d="M 1.44,0.60 Q 1.44,0.60 -0.02,4.03 -1.49,7.47 -4.44,13.56 -7.39,19.65 -10.64,27.64 -13.88,35.64 -16.98,45.61 -20.08,55.58 -22.84,65.85 -25.60,76.12 -27.34,85.62 -29.08,95.12 -30.40,103.47 -31.72,111.83 -32.57,117.39 -33.43,122.96 -34.37,126.82 -35.32,130.69 -36.33,133.25 -37.33,135.82 -38.67,137.86 -40.01,139.89 -41.11,141.38 -42.21,142.86 -42.93,143.85 -43.66,144.85 -44.80,145.52 -45.94,146.19 -47.27,146.83 -48.59,147.46 -48.89,147.58 -49.18,147.71 -49.50,147.73 -49.82,147.75 -50.13,147.67 -50.45,147.59 -50.71,147.41 -50.98,147.23 -51.18,146.98 -51.38,146.73 -51.48,146.42 -51.59,146.12 -51.60,145.80 -51.60,145.48 -51.50,145.17 -51.40,144.87 -51.21,144.61 -51.02,144.35 -50.76,144.16 -50.49,143.98 -50.19,143.89 -49.88,143.80 -49.56,143.81 -49.23,143.83 -48.93,143.94 -48.63,144.06 -48.39,144.26 -48.14,144.47 -47.97,144.74 -47.80,145.01 -47.73,145.32 -47.65,145.64 -47.68,145.96 -47.71,146.28 -47.85,146.57 -47.98,146.86 -48.19,147.10 -48.41,147.34 -48.69,147.49 -48.98,147.65 -49.29,147.70 -49.61,147.76 -49.93,147.71 -50.24,147.66 -50.53,147.52 -50.82,147.37 -51.04,147.14 -51.26,146.91 -51.40,146.62 -51.54,146.33 -51.58,146.01 -51.62,145.69 -51.56,145.38 -51.49,145.06 -51.33,144.78 -51.17,144.51 -50.92,144.29 -50.68,144.08 -50.68,144.08 -50.68,144.08 -48.38,143.31 -46.08,142.54 -45.28,141.78 -44.48,141.03 -43.34,139.73 -42.21,138.43 -41.00,136.64 -39.79,134.84 -38.84,132.45 -37.90,130.05 -36.98,126.31 -36.06,122.56 -35.22,116.98 -34.37,111.41 -33.06,103.02 -31.74,94.63 -29.99,85.02 -28.24,75.42 -25.48,65.09 -22.72,54.76 -19.61,44.67 -16.50,34.58 -13.25,26.49 -9.99,18.40 -7.12,12.36 -4.25,6.32 -2.84,2.86 -1.44,-0.60 -1.34,-0.76 -1.25,-0.92 -1.12,-1.06 -0.99,-1.20 -0.83,-1.30 -0.68,-1.40 -0.50,-1.46 -0.32,-1.52 -0.13,-1.54 0.05,-1.56 0.23,-1.53 0.42,-1.50 0.59,-1.43 0.77,-1.35 0.92,-1.24 1.07,-1.13 1.19,-0.99 1.31,-0.84 1.39,-0.67 1.47,-0.50 1.51,-0.32 1.55,-0.13 1.54,0.05 1.54,0.23 1.49,0.41 1.44,0.60 1.44,0.60 L 1.44,0.60 Z"></path></g><g transform="translate(657 808) rotate(0 102.5 12.5)" stroke="none"><path fill="#d9480f" d="M 0.95,-1.23 Q 0.95,-1.23 3.52,0.80 6.09,2.84 10.03,5.71 13.96,8.58 19.08,12.11 24.19,15.63 31.17,19.10 38.16,22.57 46.56,25.77 54.96,28.97 64.00,32.06 73.04,35.15 82.59,37.60 92.13,40.05 102.21,41.96 112.28,43.86 121.41,44.67 130.53,45.47 136.71,45.82 142.89,46.16 147.15,45.74 151.42,45.31 155.47,44.29 159.53,43.26 163.75,41.14 167.97,39.02 173.48,35.27 179.00,31.52 185.95,26.47 192.91,21.42 199.86,15.56 206.81,9.70 212.59,3.23 218.37,-3.22 221.94,-8.78 225.51,-14.34 226.99,-18.87 228.46,-23.40 227.96,-27.10 227.46,-30.80 224.79,-33.94 222.12,-37.09 218.18,-39.86 214.25,-42.64 208.32,-45.25 202.39,-47.85 195.03,-49.81 187.68,-51.78 179.39,-53.19 171.11,-54.60 161.31,-55.19 151.51,-55.79 141.08,-54.90 130.66,-54.01 121.08,-52.20 111.50,-50.39 102.60,-47.34 93.71,-44.29 85.65,-40.43 77.58,-36.57 70.75,-32.08 63.92,-27.59 57.59,-22.54 51.25,-17.49 45.44,-11.36 39.63,-5.24 33.71,1.67 27.78,8.59 21.84,16.67 15.89,24.76 10.48,32.24 5.06,39.71 0.77,46.31 -3.52,52.91 -7.08,58.32 -10.64,63.73 -13.01,67.45 -15.38,71.18 -17.26,73.93 -19.14,76.69 -20.54,78.46 -21.94,80.24 -24.06,82.22 -26.19,84.21 -26.42,84.25 -26.64,84.29 -26.87,84.26 -27.10,84.23 -27.30,84.13 -27.50,84.02 -27.67,83.86 -27.83,83.70 -27.93,83.49 -28.03,83.28 -28.06,83.06 -28.09,82.83 -28.04,82.61 -28.00,82.38 -27.88,82.18 -27.77,81.98 -27.60,81.83 -27.43,81.68 -27.21,81.59 -27.00,81.50 -26.78,81.49 -26.55,81.47 -26.33,81.53 -26.10,81.58 -25.91,81.71 -25.72,81.83 -25.58,82.01 -25.44,82.19 -25.36,82.41 -25.28,82.62 -25.28,82.85 -25.27,83.08 -25.34,83.30 -25.41,83.52 -25.54,83.70 -25.68,83.89 -25.86,84.02 -26.05,84.15 -26.27,84.22 -26.49,84.28 -26.72,84.27 -26.95,84.27 -27.16,84.19 -27.38,84.11 -27.55,83.96 -27.73,83.82 -27.85,83.62 -27.98,83.43 -28.03,83.21 -28.08,82.98 -28.06,82.76 -28.04,82.53 -27.95,82.32 -27.86,82.11 -27.70,81.94 -27.55,81.77 -27.35,81.66 -27.15,81.55 -27.15,81.55 -27.15,81.55 -25.58,80.08 -24.00,78.61 -22.66,76.91 -21.31,75.21 -19.45,72.49 -17.59,69.77 -15.21,66.03 -12.83,62.28 -9.27,56.88 -5.72,51.48 -1.39,44.83 2.94,38.17 8.36,30.69 13.77,23.21 19.78,15.04 25.79,6.88 31.76,-0.08 37.73,-7.05 43.67,-13.29 49.61,-19.54 56.05,-24.67 62.48,-29.79 69.47,-34.36 76.45,-38.93 84.65,-42.86 92.85,-46.78 101.93,-49.88 111.01,-52.97 120.72,-54.80 130.43,-56.62 141.05,-57.52 151.66,-58.41 161.61,-57.80 171.55,-57.19 179.95,-55.75 188.35,-54.31 195.90,-52.28 203.45,-50.25 209.61,-47.52 215.76,-44.79 219.95,-41.78 224.14,-38.76 227.06,-35.05 229.98,-31.33 230.47,-27.01 230.97,-22.69 229.35,-17.82 227.73,-12.94 224.03,-7.21 220.33,-1.47 214.42,5.11 208.51,11.71 201.48,17.63 194.46,23.54 187.47,28.62 180.47,33.70 174.81,37.54 169.15,41.38 164.67,43.60 160.18,45.82 155.93,46.88 151.68,47.94 147.21,48.37 142.75,48.81 136.52,48.46 130.30,48.12 121.04,47.30 111.79,46.48 101.63,44.57 91.47,42.65 81.82,40.18 72.16,37.70 63.08,34.61 53.99,31.52 45.46,28.28 36.93,25.05 29.77,21.50 22.60,17.96 17.44,14.44 12.27,10.93 8.26,8.06 4.25,5.20 1.64,3.21 -0.95,1.23 -1.09,1.10 -1.22,0.96 -1.32,0.80 -1.42,0.64 -1.47,0.46 -1.53,0.28 -1.54,0.09 -1.55,-0.08 -1.52,-0.27 -1.49,-0.45 -1.41,-0.63 -1.33,-0.80 -1.22,-0.95 -1.10,-1.10 -0.96,-1.21 -0.81,-1.33 -0.64,-1.41 -0.46,-1.48 -0.28,-1.52 -0.09,-1.55 0.08,-1.54 0.27,-1.53 0.45,-1.48 0.63,-1.42 0.79,-1.32 0.95,-1.23 0.95,-1.23 L 0.95,-1.23 Z"></path></g><g transform="translate(753 766.125) rotate(0 100 34.5)" stroke="none"><path fill="#d9480f" d="M 0.50,-1.52 Q 0.50,-1.52 2.23,-0.97 3.97,-0.43 5.70,-0.22 7.43,-0.02 10.45,0.12 13.46,0.26 17.29,0.06 21.12,-0.14 27.26,-1.63 33.39,-3.13 43.51,-6.06 53.62,-8.99 66.55,-12.81 79.48,-16.64 94.75,-21.43 110.01,-26.21 126.03,-30.26 142.04,-34.32 155.18,-37.19 168.32,-40.06 177.09,-41.57 185.85,-43.08 189.96,-43.98 194.07,-44.87 196.26,-43.59 198.46,-42.31 199.09,-37.81 199.71,-33.31 199.02,-26.50 198.34,-19.69 195.12,-11.79 191.91,-3.89 185.02,5.55 178.13,15.01 167.97,24.80 157.82,34.60 144.55,44.24 131.28,53.89 116.71,62.60 102.14,71.30 88.76,78.74 75.38,86.17 64.80,91.64 54.22,97.10 46.59,101.42 38.96,105.74 34.27,108.44 29.58,111.14 27.27,112.31 24.95,113.47 23.10,113.45 21.25,113.43 20.60,112.31 19.94,111.20 19.49,107.97 19.04,104.74 18.88,100.48 18.72,96.23 18.67,92.14 18.62,88.04 18.53,86.31 18.44,84.59 18.47,84.33 18.51,84.07 18.63,83.84 18.75,83.60 18.93,83.42 19.12,83.24 19.35,83.12 19.58,83.01 19.84,82.98 20.10,82.94 20.36,82.99 20.61,83.04 20.84,83.17 21.06,83.30 21.24,83.50 21.41,83.69 21.51,83.93 21.61,84.17 21.63,84.43 21.65,84.69 21.59,84.95 21.52,85.20 21.38,85.42 21.24,85.64 21.04,85.80 20.83,85.96 20.59,86.05 20.34,86.14 20.08,86.14 19.82,86.15 19.57,86.07 19.32,85.99 19.11,85.84 18.90,85.68 18.75,85.47 18.60,85.26 18.52,85.01 18.45,84.76 18.46,84.50 18.47,84.24 18.56,83.99 18.65,83.75 18.82,83.55 18.98,83.35 19.20,83.21 19.42,83.07 19.67,83.01 19.93,82.95 20.19,82.97 20.45,82.99 20.69,83.10 20.92,83.20 21.12,83.38 21.31,83.55 21.44,83.78 21.56,84.01 21.61,84.26 21.66,84.52 21.66,84.52 21.66,84.52 21.64,86.25 21.61,87.98 21.73,92.03 21.85,96.08 22.08,100.16 22.32,104.24 23.05,107.68 23.79,111.12 26.03,109.99 28.27,108.86 32.97,106.15 37.66,103.45 45.33,99.10 53.01,94.76 63.56,89.31 74.10,83.87 87.44,76.45 100.78,69.04 115.25,60.39 129.73,51.75 142.85,42.22 155.98,32.68 165.98,23.06 175.98,13.43 182.71,4.25 189.43,-4.92 192.55,-12.46 195.66,-20.00 196.33,-26.52 196.99,-33.04 196.75,-36.90 196.50,-40.76 195.30,-41.57 194.10,-42.38 190.20,-41.41 186.31,-40.45 177.60,-38.95 168.89,-37.44 155.80,-34.57 142.71,-31.70 126.77,-27.65 110.83,-23.60 95.55,-18.79 80.27,-13.98 67.34,-10.13 54.41,-6.27 44.25,-3.29 34.09,-0.31 27.70,1.27 21.32,2.86 17.34,3.14 13.36,3.42 10.18,3.36 7.00,3.30 4.96,3.01 2.92,2.73 1.21,2.12 -0.50,1.52 -0.68,1.44 -0.85,1.36 -1.00,1.23 -1.15,1.11 -1.27,0.96 -1.39,0.80 -1.46,0.62 -1.54,0.44 -1.57,0.25 -1.60,0.06 -1.59,-0.12 -1.57,-0.32 -1.51,-0.50 -1.45,-0.68 -1.35,-0.85 -1.24,-1.01 -1.10,-1.15 -0.96,-1.28 -0.79,-1.38 -0.63,-1.47 -0.44,-1.53 -0.25,-1.58 -0.06,-1.59 0.12,-1.60 0.31,-1.56 0.50,-1.52 0.50,-1.52 L 0.50,-1.52 Z"></path></g><g transform="translate(838 709.125) rotate(0 99.5 56.5)" stroke="none"><path fill="#d9480f" d="M 1.24,-0.93 Q 1.24,-0.93 2.94,1.38 4.64,3.70 7.98,9.05 11.31,14.41 16.44,22.70 21.58,31.00 29.46,41.08 37.35,51.16 46.12,60.01 54.90,68.87 64.33,76.05 73.76,83.22 82.90,88.56 92.05,93.89 100.51,97.88 108.97,101.86 115.98,104.41 123.00,106.95 128.24,108.31 133.48,109.68 137.86,109.67 142.24,109.66 147.13,107.98 152.02,106.30 156.88,102.50 161.74,98.71 166.68,93.67 171.63,88.63 177.12,79.11 182.60,69.59 186.09,61.26 189.57,52.92 191.90,43.97 194.23,35.02 195.22,28.09 196.21,21.16 196.34,17.39 196.48,13.62 196.44,11.99 196.41,10.35 196.46,10.12 196.51,9.88 196.63,9.67 196.75,9.46 196.93,9.30 197.11,9.14 197.34,9.04 197.56,8.95 197.80,8.93 198.04,8.91 198.28,8.97 198.51,9.04 198.72,9.17 198.92,9.30 199.07,9.49 199.22,9.68 199.30,9.91 199.38,10.14 199.39,10.38 199.39,10.62 199.32,10.85 199.24,11.09 199.10,11.28 198.96,11.48 198.76,11.62 198.56,11.76 198.33,11.82 198.10,11.89 197.85,11.88 197.61,11.88 197.39,11.79 197.16,11.70 196.97,11.55 196.78,11.40 196.65,11.19 196.53,10.99 196.47,10.75 196.41,10.51 196.43,10.27 196.46,10.03 196.55,9.81 196.65,9.59 196.82,9.41 196.98,9.23 197.19,9.11 197.40,9.00 197.64,8.95 197.88,8.91 198.12,8.94 198.36,8.98 198.58,9.09 198.79,9.20 198.96,9.37 199.13,9.54 199.24,9.76 199.34,9.98 199.38,10.22 199.41,10.46 199.41,10.46 199.41,10.46 199.25,12.09 199.10,13.72 198.96,17.63 198.81,21.53 197.80,28.61 196.78,35.69 194.39,44.81 192.00,53.94 188.44,62.42 184.88,70.91 179.20,80.68 173.52,90.46 168.44,95.62 163.35,100.79 158.12,104.78 152.90,108.78 147.59,110.54 142.28,112.30 137.56,112.27 132.83,112.24 127.46,110.84 122.09,109.45 114.97,106.86 107.84,104.27 99.27,100.24 90.70,96.21 81.41,90.79 72.13,85.37 62.55,78.08 52.97,70.79 44.07,61.83 35.17,52.87 27.18,42.68 19.19,32.49 14.03,24.22 8.86,15.94 5.56,10.72 2.25,5.49 0.50,3.21 -1.24,0.93 -1.34,0.77 -1.43,0.61 -1.48,0.43 -1.54,0.24 -1.54,0.06 -1.55,-0.12 -1.51,-0.31 -1.48,-0.49 -1.40,-0.66 -1.31,-0.83 -1.20,-0.98 -1.08,-1.12 -0.93,-1.24 -0.77,-1.35 -0.60,-1.42 -0.43,-1.50 -0.24,-1.53 -0.06,-1.56 0.12,-1.54 0.31,-1.53 0.49,-1.47 0.67,-1.41 0.83,-1.30 0.98,-1.20 1.11,-1.07 1.24,-0.93 1.24,-0.93 L 1.24,-0.93 Z"></path></g><g transform="translate(797 749.125) rotate(0 99 -39.5)" stroke="none"><path fill="#d9480f" d="M 0,-1.57 Q 0,-1.57 2.01,-1.56 4.02,-1.55 6.31,-1.52 8.61,-1.49 11.88,-1.46 15.15,-1.44 20.53,-1.71 25.91,-1.97 33.65,-2.66 41.39,-3.34 51.85,-4.77 62.31,-6.21 73.60,-8.82 84.90,-11.43 95.69,-15.39 106.47,-19.35 115.59,-24.45 124.72,-29.55 131.14,-34.55 137.56,-39.55 142.80,-46.19 148.05,-52.84 151.72,-58.53 155.40,-64.22 158.66,-70.90 161.93,-77.59 165.91,-86.20 169.90,-94.81 172.76,-100.50 175.61,-106.19 179.14,-112.10 182.68,-118.00 185.60,-123.07 188.53,-128.14 190.65,-131.48 192.77,-134.81 193.95,-136.53 195.14,-138.24 192.25,-136.82 189.36,-135.39 182.87,-132.04 176.39,-128.68 167.06,-122.13 157.74,-115.58 146.60,-105.92 135.47,-96.27 122.40,-83.56 109.33,-70.84 97.18,-57.13 85.03,-43.42 74.11,-30.12 63.20,-16.82 53.39,-3.72 43.59,9.38 35.68,20.13 27.77,30.89 22.70,38.87 17.64,46.85 14.90,51.12 12.16,55.40 10.99,57.21 9.83,59.03 9.69,59.18 9.54,59.34 9.36,59.45 9.17,59.55 8.96,59.59 8.75,59.63 8.54,59.61 8.32,59.58 8.13,59.48 7.94,59.39 7.79,59.23 7.64,59.08 7.54,58.89 7.45,58.70 7.42,58.49 7.39,58.27 7.43,58.06 7.47,57.85 7.58,57.67 7.68,57.48 7.84,57.34 8.00,57.20 8.20,57.11 8.40,57.03 8.61,57.01 8.82,56.99 9.03,57.04 9.24,57.10 9.42,57.21 9.60,57.33 9.73,57.49 9.87,57.66 9.94,57.86 10.01,58.06 10.02,58.28 10.03,58.49 9.96,58.70 9.90,58.90 9.77,59.07 9.65,59.25 9.48,59.37 9.30,59.50 9.10,59.56 8.89,59.62 8.68,59.62 8.46,59.61 8.26,59.54 8.06,59.46 7.89,59.33 7.73,59.19 7.61,59.01 7.50,58.83 7.45,58.62 7.40,58.42 7.41,58.20 7.43,57.99 7.52,57.79 7.60,57.60 7.60,57.60 7.60,57.60 8.76,55.78 9.92,53.96 12.66,49.69 15.39,45.42 20.50,37.36 25.61,29.30 33.52,18.53 41.43,7.77 51.26,-5.39 61.09,-18.55 72.02,-31.90 82.96,-45.25 95.16,-59.06 107.36,-72.86 120.46,-85.66 133.57,-98.45 144.79,-108.24 156.01,-118.02 165.47,-124.74 174.93,-131.45 181.51,-134.96 188.10,-138.46 191.76,-139.83 195.42,-141.20 196.38,-140.72 197.34,-140.23 197.35,-138.49 197.36,-136.74 196.17,-135.07 194.99,-133.40 192.90,-130.11 190.80,-126.83 187.87,-121.74 184.94,-116.65 181.45,-110.83 177.96,-105.01 175.13,-99.36 172.29,-93.70 168.29,-85.07 164.30,-76.43 160.96,-69.61 157.62,-62.79 153.87,-56.99 150.12,-51.19 144.66,-44.33 139.20,-37.47 132.61,-32.35 126.02,-27.23 116.71,-22.03 107.40,-16.84 96.46,-12.82 85.51,-8.80 74.09,-6.15 62.68,-3.51 52.16,-2.05 41.64,-0.59 33.85,0.11 26.06,0.82 20.61,1.13 15.15,1.44 11.88,1.46 8.61,1.49 6.31,1.52 4.02,1.55 2.01,1.56 0,1.57 -0.18,1.54 -0.37,1.52 -0.55,1.45 -0.73,1.39 -0.88,1.28 -1.04,1.17 -1.16,1.03 -1.29,0.89 -1.38,0.72 -1.46,0.55 -1.51,0.37 -1.56,0.18 -1.56,-0.00 -1.56,-0.18 -1.51,-0.37 -1.46,-0.55 -1.38,-0.72 -1.29,-0.89 -1.16,-1.03 -1.04,-1.17 -0.88,-1.28 -0.73,-1.39 -0.55,-1.45 -0.37,-1.52 -0.18,-1.54 0.00,-1.57 0.00,-1.57 L 0,-1.57 Z"></path></g><g transform="translate(1080 808) rotate(0 -95 -31)" stroke="none"><path fill="#d9480f" d="M 1.03,1.16 Q 1.03,1.16 -1.57,3.44 -4.18,5.71 -9.34,9.86 -14.51,14.00 -23.09,19.53 -31.66,25.05 -42.83,30.58 -53.99,36.11 -66.83,40.76 -79.66,45.42 -92.91,48.84 -106.16,52.26 -116.15,53.72 -126.14,55.18 -131.56,55.51 -136.98,55.84 -139.69,55.67 -142.40,55.49 -144.67,53.87 -146.93,52.24 -149.92,47.71 -152.90,43.18 -157.30,34.65 -161.71,26.12 -167.03,14.44 -172.35,2.76 -176.92,-9.70 -181.50,-22.17 -184.32,-35.02 -187.14,-47.86 -186.91,-59.48 -186.67,-71.10 -183.95,-80.17 -181.23,-89.24 -177.43,-95.47 -173.63,-101.70 -169.94,-105.55 -166.25,-109.39 -163.17,-111.36 -160.08,-113.34 -157.59,-114.46 -155.09,-115.59 -151.35,-116.38 -147.60,-117.18 -142.52,-117.51 -137.45,-117.84 -130.15,-118.26 -122.85,-118.68 -115.42,-118.86 -107.98,-119.04 -103.10,-119.12 -98.21,-119.19 -95.65,-118.60 -93.08,-118.01 -91.23,-116.19 -89.37,-114.36 -87.46,-112.16 -85.55,-109.95 -85.43,-109.73 -85.31,-109.51 -85.26,-109.26 -85.22,-109.01 -85.25,-108.76 -85.29,-108.51 -85.40,-108.29 -85.51,-108.06 -85.69,-107.88 -85.87,-107.71 -86.10,-107.60 -86.33,-107.49 -86.58,-107.45 -86.83,-107.42 -87.08,-107.47 -87.33,-107.52 -87.55,-107.65 -87.76,-107.77 -87.93,-107.96 -88.10,-108.15 -88.20,-108.38 -88.30,-108.62 -88.31,-108.87 -88.33,-109.12 -88.27,-109.36 -88.21,-109.61 -88.07,-109.82 -87.93,-110.03 -87.74,-110.19 -87.54,-110.35 -87.30,-110.43 -87.06,-110.52 -86.81,-110.52 -86.56,-110.53 -86.31,-110.45 -86.07,-110.38 -85.87,-110.23 -85.67,-110.08 -85.52,-109.87 -85.37,-109.67 -85.30,-109.42 -85.23,-109.18 -85.24,-108.93 -85.25,-108.68 -85.33,-108.44 -85.42,-108.20 -85.58,-108.01 -85.74,-107.81 -85.96,-107.68 -86.17,-107.54 -86.42,-107.48 -86.66,-107.42 -86.91,-107.45 -87.17,-107.47 -87.40,-107.57 -87.63,-107.67 -87.82,-107.84 -88.00,-108.01 -88.00,-108.01 -88.00,-108.01 -89.64,-110.29 -91.28,-112.56 -92.58,-114.07 -93.89,-115.58 -96.04,-116.08 -98.19,-116.57 -103.06,-116.49 -107.92,-116.42 -115.31,-116.24 -122.70,-116.06 -129.99,-115.64 -137.28,-115.21 -142.18,-114.91 -147.07,-114.60 -150.55,-113.90 -154.03,-113.19 -156.35,-112.15 -158.68,-111.11 -161.53,-109.33 -164.38,-107.56 -167.89,-103.94 -171.40,-100.31 -175.06,-94.38 -178.72,-88.45 -181.39,-79.73 -184.05,-71.01 -184.31,-59.71 -184.57,-48.41 -181.80,-35.74 -179.02,-23.08 -174.49,-10.70 -169.95,1.67 -164.66,13.29 -159.36,24.91 -155.02,33.33 -150.68,41.74 -147.98,45.96 -145.28,50.18 -143.64,51.56 -142.00,52.94 -139.57,53.06 -137.14,53.18 -131.84,52.85 -126.53,52.53 -116.68,51.09 -106.84,49.65 -93.72,46.25 -80.59,42.86 -67.90,38.24 -55.22,33.63 -44.20,28.16 -33.19,22.69 -24.76,17.22 -16.33,11.75 -11.24,7.61 -6.16,3.48 -3.60,1.15 -1.03,-1.16 -0.88,-1.27 -0.72,-1.38 -0.55,-1.44 -0.37,-1.51 -0.18,-1.53 -0.00,-1.56 0.18,-1.53 0.37,-1.51 0.54,-1.45 0.72,-1.38 0.87,-1.27 1.03,-1.17 1.15,-1.03 1.28,-0.88 1.37,-0.72 1.45,-0.55 1.50,-0.37 1.55,-0.19 1.55,-0.00 1.55,0.18 1.50,0.36 1.46,0.55 1.37,0.71 1.28,0.88 1.16,1.02 1.03,1.16 1.03,1.16 L 1.03,1.16 Z"></path></g><g transform="translate(1034 739.125) rotate(0 -29.5 100)" stroke="none"><path fill="#d9480f" d="M 1.55,-0.11 Q 1.55,-0.11 1.81,3.91 2.06,7.94 2.16,14.00 2.26,20.06 2.01,26.97 1.75,33.88 1.06,40.87 0.37,47.86 -0.49,54.57 -1.37,61.28 -3.19,68.80 -5.02,76.31 -7.23,84.10 -9.45,91.88 -12.12,100.38 -14.79,108.87 -17.65,117.37 -20.51,125.87 -23.46,133.81 -26.41,141.75 -29.10,148.58 -31.79,155.40 -34.09,160.90 -36.39,166.40 -37.94,170.16 -39.49,173.93 -41.34,177.05 -43.19,180.18 -45.43,183.24 -47.67,186.31 -50.08,189.08 -52.49,191.84 -54.03,194.08 -55.57,196.33 -56.87,198.23 -58.16,200.13 -58.35,200.30 -58.53,200.47 -58.75,200.58 -58.98,200.68 -59.23,200.71 -59.47,200.74 -59.72,200.68 -59.96,200.63 -60.17,200.50 -60.39,200.37 -60.55,200.18 -60.71,199.99 -60.80,199.76 -60.89,199.53 -60.91,199.28 -60.92,199.03 -60.86,198.79 -60.79,198.55 -60.65,198.35 -60.51,198.14 -60.31,197.99 -60.11,197.84 -59.88,197.76 -59.64,197.68 -59.39,197.68 -59.14,197.68 -58.91,197.76 -58.67,197.84 -58.47,197.99 -58.28,198.14 -58.14,198.34 -58.00,198.55 -57.93,198.79 -57.86,199.03 -57.87,199.28 -57.89,199.53 -57.98,199.76 -58.07,199.99 -58.23,200.18 -58.39,200.37 -58.61,200.50 -58.82,200.63 -59.06,200.68 -59.31,200.74 -59.55,200.71 -59.80,200.68 -60.03,200.58 -60.25,200.47 -60.43,200.30 -60.62,200.13 -60.73,199.91 -60.85,199.69 -60.89,199.45 -60.93,199.20 -60.89,198.95 -60.85,198.71 -60.73,198.49 -60.62,198.27 -60.62,198.27 -60.62,198.27 -59.18,196.56 -57.74,194.84 -56.11,192.48 -54.47,190.11 -52.14,187.43 -49.80,184.76 -47.62,181.79 -45.45,178.83 -43.69,175.88 -41.92,172.92 -40.37,169.15 -38.82,165.38 -36.54,159.91 -34.25,154.43 -31.57,147.63 -28.89,140.83 -25.96,132.92 -23.03,125.02 -20.18,116.55 -17.33,108.07 -14.68,99.61 -12.03,91.15 -9.83,83.41 -7.64,75.67 -5.86,68.30 -4.07,60.93 -3.22,54.26 -2.37,47.59 -1.71,40.69 -1.05,33.79 -0.84,26.95 -0.62,20.12 -0.77,14.14 -0.91,8.15 -1.23,4.13 -1.55,0.11 -1.54,-0.07 -1.53,-0.26 -1.48,-0.44 -1.43,-0.62 -1.33,-0.78 -1.24,-0.95 -1.10,-1.08 -0.97,-1.21 -0.81,-1.31 -0.65,-1.41 -0.47,-1.47 -0.29,-1.53 -0.11,-1.54 0.07,-1.56 0.26,-1.52 0.44,-1.49 0.62,-1.42 0.79,-1.34 0.94,-1.23 1.09,-1.11 1.21,-0.96 1.32,-0.82 1.40,-0.65 1.48,-0.48 1.52,-0.29 1.55,-0.11 1.55,-0.11 L 1.55,-0.11 Z"></path></g><g transform="translate(997 746.125) rotate(0 -65.5 94)" stroke="none"><path fill="#d9480f" d="M 1.56,0 Q 1.56,0 1.52,3.16 1.49,6.32 1.18,11.16 0.86,16.00 -0.14,22.13 -1.15,28.26 -3.03,36.06 -4.91,43.86 -7.44,52.36 -9.97,60.86 -12.49,68.50 -15.01,76.15 -17.52,82.86 -20.04,89.57 -22.86,95.35 -25.68,101.13 -29.50,106.80 -33.32,112.47 -38.71,118.65 -44.10,124.83 -51.33,130.95 -58.56,137.06 -67.38,143.68 -76.21,150.30 -85.70,157.13 -95.20,163.97 -103.56,169.75 -111.91,175.54 -117.17,179.42 -122.42,183.30 -124.66,184.95 -126.90,186.61 -127.09,186.70 -127.28,186.80 -127.49,186.83 -127.70,186.86 -127.91,186.83 -128.12,186.79 -128.31,186.69 -128.49,186.58 -128.64,186.43 -128.78,186.27 -128.87,186.08 -128.95,185.88 -128.97,185.67 -128.99,185.46 -128.95,185.25 -128.90,185.05 -128.79,184.86 -128.67,184.68 -128.51,184.55 -128.35,184.41 -128.15,184.34 -127.95,184.26 -127.74,184.25 -127.52,184.24 -127.32,184.30 -127.11,184.36 -126.94,184.49 -126.77,184.61 -126.64,184.78 -126.51,184.95 -126.45,185.15 -126.38,185.35 -126.39,185.57 -126.39,185.78 -126.46,185.98 -126.53,186.18 -126.66,186.35 -126.79,186.52 -126.97,186.63 -127.15,186.75 -127.35,186.80 -127.56,186.86 -127.77,186.84 -127.98,186.83 -128.18,186.75 -128.38,186.67 -128.54,186.53 -128.70,186.39 -128.80,186.20 -128.91,186.02 -128.95,185.81 -129.00,185.60 -128.97,185.39 -128.94,185.18 -128.85,184.99 -128.76,184.80 -128.61,184.64 -128.46,184.49 -128.46,184.49 -128.46,184.49 -126.22,182.84 -123.98,181.18 -118.70,177.28 -113.41,173.37 -105.08,167.60 -96.74,161.83 -87.27,155.01 -77.79,148.19 -69.03,141.62 -60.27,135.04 -53.18,129.06 -46.09,123.08 -40.81,117.03 -35.52,110.98 -31.79,105.47 -28.07,99.96 -25.31,94.30 -22.55,88.63 -20.06,81.97 -17.57,75.30 -15.08,67.69 -12.59,60.09 -10.09,51.65 -7.60,43.21 -5.76,35.51 -3.93,27.81 -2.97,21.81 -2.01,15.82 -1.75,11.07 -1.49,6.32 -1.52,3.16 -1.56,0 -1.53,-0.18 -1.51,-0.37 -1.45,-0.54 -1.38,-0.72 -1.27,-0.88 -1.16,-1.03 -1.02,-1.16 -0.88,-1.28 -0.72,-1.37 -0.55,-1.46 -0.37,-1.50 -0.18,-1.55 0.00,-1.55 0.18,-1.55 0.37,-1.50 0.55,-1.46 0.72,-1.37 0.88,-1.28 1.02,-1.16 1.16,-1.03 1.27,-0.88 1.38,-0.72 1.45,-0.54 1.51,-0.37 1.53,-0.18 1.56,0.00 1.56,0.00 L 1.56,0 Z"></path></g></svg>